<svg width="15" height="11" viewBox="0 0 15 11" fill="none" xmlns="http://www.w3.org/2000/svg">
<path d="M0.25727 3.84489H11.2795V5.38288C11.2795 5.45232 11.3048 5.51231 11.3555 5.56312C11.4063 5.6139 11.4664 5.63924 11.5358 5.63924C11.6106 5.63924 11.672 5.61525 11.7199 5.56716L14.2833 3.00388C14.3312 2.95582 14.3552 2.89437 14.3552 2.81969C14.3552 2.74486 14.3312 2.68339 14.2831 2.63544L11.728 0.0801288C11.6638 0.0266535 11.5997 0 11.5356 0C11.4609 0 11.3994 0.0240163 11.3514 0.0720488C11.3034 0.120165 11.2794 0.181496 11.2794 0.256294V1.79429H0.25727C0.187859 1.79429 0.127791 1.81962 0.0770651 1.87037C0.0263394 1.92113 0.000976562 1.98117 0.000976562 2.05058V3.58857C0.000976562 3.65798 0.0263113 3.71805 0.0770651 3.76878C0.127819 3.8195 0.187859 3.84489 0.25727 3.84489Z" fill="url(#paint0_linear_32_2832)"/>
<path d="M14.0985 6.92105H3.07635V5.383C3.07635 5.31359 3.05096 5.25352 3.00026 5.2028C2.94951 5.15204 2.88941 5.12671 2.82003 5.12671C2.7452 5.12671 2.68384 5.15072 2.63578 5.19876L0.0725367 7.7619C0.0245886 7.8101 0.000488281 7.87137 0.000488281 7.94628C0.000488281 8.01561 0.0244764 8.07444 0.0725367 8.12234L2.62782 10.6857C2.69192 10.7391 2.756 10.7657 2.82011 10.7657C2.8895 10.7657 2.94959 10.7404 3.00032 10.6897C3.05102 10.6389 3.07641 10.5789 3.07641 10.5094V8.97149H14.0985C14.168 8.97149 14.2279 8.94627 14.2788 8.89546C14.3295 8.84465 14.3547 8.78466 14.3547 8.71514V7.1772C14.3547 7.10776 14.3294 7.04778 14.2788 6.99708C14.2279 6.94638 14.168 6.92105 14.0985 6.92105Z" fill="url(#paint1_linear_32_2832)"/>
<defs>
<linearGradient id="paint0_linear_32_2832" x1="7.89578" y1="-0.887657" x2="8.02088" y2="9.11069" gradientUnits="userSpaceOnUse">
<stop stop-color="#FD749B"/>
<stop offset="1" stop-color="#281AC8"/>
</linearGradient>
<linearGradient id="paint1_linear_32_2832" x1="7.89533" y1="4.23909" x2="8.02041" y2="14.237" gradientUnits="userSpaceOnUse">
<stop stop-color="#FD749B"/>
<stop offset="1" stop-color="#281AC8"/>
</linearGradient>
</defs>
</svg>
