<svg width="14" height="9" viewBox="0 0 14 9" fill="none" xmlns="http://www.w3.org/2000/svg">
<path opacity="0.8" fill-rule="evenodd" clip-rule="evenodd" d="M4.4472 5.3911V3.6089H8.71766C9.01499 5.76541 8.1178 9 4.4472 9C1.99157 9 0.000488281 6.98508 0.000488281 4.49982C0.000488281 2.01456 1.99157 0 4.4472 0C5.59938 0 6.64921 0.443358 7.43919 1.17096C6.82726 1.75594 6.63097 1.97911 6.46428 2.16861C6.3775 2.26727 6.29875 2.3568 6.17356 2.48351C5.71664 2.10113 5.21844 1.82671 4.4472 1.82671C2.98832 1.82671 1.84967 3.0236 1.84967 4.49982C1.84967 5.9764 2.98832 7.17329 4.4472 7.17329C5.88872 7.17329 6.47436 6.54418 6.85113 5.38864C6.15552 5.38864 4.4472 5.3911 4.4472 5.3911ZM12.4597 2.13863V3.69792H14.0005V4.81175H12.4597V6.4159H11.3592V4.81175H9.77409V3.69792H11.3592V2.13863H12.4597Z" fill="white"/>
</svg>
