<svg width="198" height="155" viewBox="0 0 198 155" fill="none" xmlns="http://www.w3.org/2000/svg">
<g clip-path="url(#clip0_32_3043)">
<path opacity="0.1" d="M186.13 97.9699C179.45 106.497 182.039 118.964 186.29 128.943C187.707 132.285 189.326 135.82 188.719 139.404C187.984 143.785 184.085 146.991 179.99 148.688C172.527 151.785 163.595 151.046 156.741 146.768C150.814 143.07 146.572 137.056 140.548 133.528C130.461 127.621 117.624 129.851 106.671 133.92C98.9228 136.799 90.4517 140.541 82.7518 137.534C77.3331 135.416 73.5884 130.265 71.548 124.803C70.5623 122.164 69.8477 119.321 67.9673 117.222C66.8479 115.979 65.3885 115.098 63.8947 114.353C50.2417 107.565 32.9979 111.2 19.7356 103.669C10.7787 98.5831 5.04626 88.9876 2.50594 78.984C-0.0343852 68.9804 0.263168 58.4895 0.906851 48.1854C1.36431 40.8639 2.18612 33.047 6.85181 27.3944C11.7867 21.4171 20.2538 19.1938 27.9031 20.3288C35.5524 21.4637 42.4932 25.5184 48.6042 30.2857C56.2332 36.2468 63.3057 43.6698 72.6714 46.086C79.0496 47.7306 85.7597 46.8311 92.3362 46.5184C103.333 45.9966 114.335 47.156 125.271 48.425C135.74 49.6432 146.286 50.9751 156.261 54.3922C163.319 56.8104 168.979 61.198 175.643 64.2638C179.986 66.2617 184.725 66.814 188.838 69.3601C193.898 72.4949 198.554 77.9485 197.252 84.332C196.018 90.3987 189.68 93.4422 186.13 97.9699Z" fill="url(#paint0_linear_32_3043)"/>
<path d="M155.219 128.204C154.423 127.266 153.521 126.425 152.531 125.699C152.737 125.548 152.939 125.397 153.138 125.246C155.692 123.341 157.88 121.388 158.35 119.985C159.605 116.263 172.473 109.441 172.473 109.441C172.473 109.441 159.291 111.922 152.387 107.89C148.268 105.484 141.914 105.066 137.459 105.121L137.491 105.044L137.552 104.91C137.586 104.834 137.621 104.761 137.657 104.686C137.694 104.611 137.716 104.564 137.748 104.504L137.774 104.455C137.821 104.365 137.87 104.276 137.92 104.187C138.044 103.968 138.175 103.748 138.315 103.529V103.517C138.674 102.962 139.064 102.428 139.483 101.917L139.499 101.897C139.833 101.49 140.181 101.084 140.531 100.713L140.552 100.691L140.799 100.429L140.839 100.388C141.173 100.037 141.507 99.7038 141.831 99.3931L141.906 99.3221L142.108 99.1373L142.201 99.05L142.381 98.8815L142.477 98.7942L142.746 98.5505L142.892 98.4206L143.001 98.3251L143.161 98.1851L143.242 98.116L143.444 97.9373L143.462 97.9211C144.116 97.3607 144.547 97.0338 144.547 97.0338H144.537C144.33 97.183 144.113 97.3187 143.887 97.4399L143.857 97.4541L143.655 97.5556L143.598 97.582L143.418 97.6632L143.317 97.7039L143.175 97.7627L143.037 97.8135L142.926 97.8541L142.752 97.913L142.671 97.9394L142.448 98.0064L142.412 98.0165L142.149 98.0876C137.57 99.2713 131.062 97.5211 130.465 97.3546L130.427 97.3445C130.427 97.3445 127.812 96.8024 124.423 96.3151C125.994 93.0909 127.567 90.0575 129.024 87.3571C130.281 90.1183 132.417 92.3823 135.097 93.7934C135.198 93.6797 135.299 93.5619 135.384 93.4441C135.688 93.6188 135.868 93.702 135.868 93.702C136.718 92.7266 137.31 91.5521 137.588 90.2869C138.46 91.1159 139.445 91.8159 140.513 92.366C140.601 92.2672 140.685 92.1664 140.766 92.0635C140.89 92.1285 140.956 92.1609 140.956 92.1609C142.651 90.2463 143.1 87.7733 142.91 85.2577C146.059 86.4603 149.537 86.4754 152.697 85.3004C152.697 85.2882 152.697 85.274 152.697 85.2618C152.988 85.1623 153.148 85.0933 153.148 85.0933C152.893 83.2111 151.933 81.6416 150.63 80.3381C156.678 80.464 159.941 76.7038 159.941 76.7038L159.907 76.6571C160.156 76.4236 160.281 76.2794 160.281 76.2794C159.482 75.1494 158.473 74.1844 157.31 73.4369C160.071 71.7984 161.267 69.6767 161.267 69.6767C161.198 69.6117 161.125 69.5488 161.064 69.4858C161.216 69.2666 161.291 69.1346 161.291 69.1346C161.139 68.9904 160.982 68.8544 160.824 68.7285C160.927 68.5722 160.977 68.4828 160.977 68.4828C158.548 66.1906 155.326 65.3642 152.13 65.2688C154.061 63.1159 155.25 60.3963 155.52 57.5128C153.091 56.7189 150.61 57.2671 148.351 58.4082C148.535 56.3017 148.232 54.1809 147.464 52.2115C148.084 52.6902 148.75 53.1038 149.454 53.446C149.54 53.3458 149.623 53.2436 149.703 53.1394C149.826 53.2023 149.905 53.2328 149.905 53.2328C151.569 51.2918 151.978 48.8127 151.749 46.3092C154.917 47.4628 158.395 47.4238 161.536 46.1996V46.161C161.826 46.0575 161.983 45.9864 161.983 45.9864C161.698 44.1083 160.722 42.5531 159.39 41.2699C165.439 41.3024 168.643 37.4914 168.643 37.4914L168.607 37.4447C168.851 37.2071 168.975 37.0609 168.975 37.0609C168.157 35.9472 167.133 35.0016 165.959 34.2753C168.694 32.5941 169.855 30.4541 169.855 30.4541C169.785 30.3892 169.712 30.3282 169.641 30.2653C169.789 30.042 169.861 29.91 169.861 29.91C169.708 29.7679 169.548 29.6339 169.388 29.5039C169.489 29.3455 169.54 29.2562 169.54 29.2562C167.076 27.0025 163.84 26.2249 160.633 26.1802C162.53 23.9974 163.674 21.26 163.898 18.3735C161.449 17.6161 158.986 18.2049 156.745 19.3886C156.919 17.0963 156.5 14.7978 155.53 12.7148C155.364 12.7493 155.203 12.79 155.043 12.8326C155.004 12.7514 154.982 12.7108 154.982 12.7108C154.917 12.5686 154.877 12.4915 154.877 12.4915C152.097 13.0539 150.104 15.0619 148.687 17.474C148.581 17.6527 148.484 17.8334 148.381 18.0161C147.327 15.4081 145.496 13.19 143.139 11.6651C141.068 13.6244 140.471 16.4101 140.584 19.2282C140.584 19.4191 140.604 19.6099 140.616 19.8008C138.247 17.9437 135.34 16.9078 132.334 16.8487C131.906 18.5217 132.109 20.1683 132.696 21.7215C130.669 21.4088 128.598 21.5537 126.634 22.1459C126.634 22.1723 126.634 22.1987 126.634 22.2251C126.344 22.3022 126.184 22.3591 126.184 22.3591C126.342 24.7183 127.601 26.6695 129.336 28.2471C126.669 28.6435 124.177 29.8129 122.164 31.6114C122.232 31.7305 122.299 31.8463 122.367 31.9586C122.225 32.0825 122.152 32.1617 122.152 32.1617C123.389 34.3524 125.553 35.5991 127.967 36.2752C125.509 37.7475 123.577 39.961 122.448 42.5998C122.506 42.6404 122.565 42.6789 122.624 42.7196C122.5 42.9876 122.443 43.1439 122.443 43.1439C124.506 44.6179 127.008 44.8433 129.492 44.4433C129.09 45.8762 128.922 47.3647 128.994 48.8513C127.469 50.9974 125.923 53.2429 124.397 55.5149C124.122 55.4987 123.968 55.5007 123.968 55.5007C123.885 55.8083 123.822 56.1209 123.779 56.4367C122.937 57.6955 122.103 58.9584 121.284 60.2111C120.238 60.2473 119.201 60.4158 118.197 60.7126C118.197 60.739 118.197 60.7654 118.197 60.7918C117.907 60.8649 117.745 60.9177 117.745 60.9177C117.745 60.9502 117.745 60.9827 117.745 61.0152C116.389 59.1777 114.491 57.8031 112.444 56.7778C115.117 55.642 117.36 53.6822 118.849 51.1821C116.984 49.4401 114.509 48.898 111.966 48.9832C113.141 47.0075 113.788 44.7614 113.845 42.4617C113.681 42.4191 113.517 42.3866 113.353 42.3561C113.353 42.2668 113.353 42.2201 113.353 42.2201C113.353 42.0637 113.353 41.9785 113.353 41.9785C110.606 41.276 107.924 42.216 105.576 43.7672C105.402 43.883 105.23 44.0007 105.06 44.1225C105.275 41.3299 104.616 38.5396 103.173 36.1412C100.441 37.0041 98.6677 39.2456 97.518 41.8262C97.439 42.0008 97.3662 42.1774 97.2933 42.3561C95.9869 39.657 93.8337 37.4623 91.1641 36.1087C90.0367 37.4264 89.4881 38.9938 89.3222 40.6466C87.6346 39.4843 85.7091 38.7156 83.6869 38.3969L83.6586 38.472C83.3651 38.4152 83.195 38.3969 83.195 38.3969C82.2882 40.5856 82.5594 42.8881 83.3974 45.0585C80.8243 44.2647 78.0773 44.2336 75.487 44.9692C75.487 45.1052 75.5052 45.2392 75.5214 45.3753C75.3393 45.426 75.2421 45.4585 75.2421 45.4585C75.3797 47.964 76.7683 50.0228 78.6386 51.6775C75.7748 51.9362 73.0624 53.083 70.878 54.9586C70.9124 55.0215 70.9489 55.0804 70.9833 55.1413C70.7545 55.3281 70.6331 55.4438 70.6331 55.4438C71.8314 57.663 73.979 58.9523 76.3857 59.6711C74.9898 61.2056 73.969 63.0449 73.4042 65.0434C73.5863 65.1409 73.7685 65.2282 73.9547 65.3114C73.9142 65.4515 73.896 65.5307 73.896 65.5307C76.4768 66.9296 79.4301 66.5987 82.1748 65.5835C81.3429 71.3639 84.7698 75.4429 84.7698 75.4429C84.9095 75.382 85.0471 75.3171 85.1747 75.2399C85.3771 75.5242 85.5005 75.6764 85.5005 75.6764C86.6933 75.1522 87.7369 74.3378 88.5368 73.307C88.9695 74.4232 89.5605 75.4708 90.2917 76.4175C90.4145 76.3647 90.5346 76.3085 90.652 76.249C90.735 76.3586 90.7836 76.4175 90.7836 76.4175C91.9754 75.8963 93.0189 75.0854 93.8198 74.0582C94.0891 79.9788 94.3198 89.7448 93.6518 99.8175C93.247 105.965 92.5041 112.229 91.2228 117.804C88.9011 108.17 85.9074 96.4998 82.8772 86.7927C79.5738 76.2084 73.2098 66.1012 67.3054 56.6864C63.0931 49.972 57.7574 41.7348 52.7537 34.793C57.3971 36.3401 61.0527 34.7159 61.0527 34.7159C61.0527 34.7159 61.0527 34.6773 61.0406 34.659C61.3665 34.5534 61.5426 34.4742 61.5426 34.4742C61.3031 33.1196 60.8033 31.8245 60.071 30.6612C63.2753 30.3384 65.2711 28.9192 65.2711 28.9192C65.2367 28.8298 65.1982 28.7446 65.1618 28.6573C65.3946 28.5212 65.518 28.4339 65.518 28.4339C65.4411 28.2309 65.3581 28.0502 65.2711 27.8634C65.433 27.7659 65.518 27.705 65.518 27.705C64.3035 24.6107 61.743 22.5073 58.8909 21.0799C61.564 19.9442 63.8071 17.9843 65.2954 15.4842C63.4311 13.7422 60.9556 13.2001 58.4132 13.2854C59.5914 11.3133 60.2432 9.07012 60.3058 6.77196C60.1419 6.72932 59.9779 6.69683 59.8139 6.66638C59.8139 6.57704 59.8139 6.53034 59.8139 6.53034C59.8139 6.374 59.8139 6.28873 59.8139 6.28873C57.0672 5.58622 54.3851 6.52628 52.0371 8.07748C51.863 8.19321 51.691 8.31097 51.521 8.43279C51.7363 5.64018 51.0768 2.84983 49.6344 0.451432C46.9018 1.31434 45.1287 3.55586 43.9789 6.13645C43.9 6.31106 43.8271 6.48771 43.7543 6.66638C42.4478 3.96722 40.2947 1.77252 37.6251 0.418945C36.4976 1.73665 35.9491 3.30409 35.7831 4.95681C34.095 3.79429 32.1688 3.02561 30.1458 2.70717L30.1175 2.78229C29.824 2.72544 29.654 2.70717 29.654 2.70717C28.7471 4.8959 29.0184 7.19833 29.8564 9.36879C27.2745 8.56933 24.5168 8.5383 21.9176 9.27946C21.9176 9.41549 21.9358 9.54949 21.952 9.68553C21.7699 9.73629 21.6727 9.76877 21.6727 9.76877C21.8103 12.2742 23.1989 14.333 25.0692 15.9878C22.2061 16.249 19.4952 17.3979 17.3127 19.2749C17.3471 19.3379 17.3835 19.3968 17.4179 19.4577C17.1892 19.6445 17.0677 19.7602 17.0677 19.7602C18.266 21.9794 20.4137 23.2687 22.8204 23.9874C21.4245 25.5219 20.4037 27.3612 19.8388 29.3598C20.021 29.4572 20.2032 29.5445 20.3894 29.6278C20.3489 29.7679 20.3307 29.847 20.3307 29.847C22.9115 31.246 25.8647 30.915 28.6095 29.8998C27.7776 35.6803 31.2045 39.7593 31.2045 39.7593C31.3441 39.6984 31.4818 39.6334 31.6093 39.5562C31.8117 39.8405 31.9352 39.9928 31.9352 39.9928C33.128 39.4685 34.1715 38.6541 34.9714 37.6233C35.4062 38.7444 36.0007 39.7962 36.7365 40.746C36.8593 40.6932 36.9794 40.6371 37.0968 40.5775C37.1798 40.6872 37.2284 40.746 37.2284 40.746C39.5845 39.7309 41.054 37.6761 41.9629 35.327C45.2683 38.805 49.4725 39.3715 50.5453 39.4608C56.6988 48.1792 64.1699 59.5086 68.9166 69.2909C68.9166 69.2909 78.6832 88.22 84.9075 108.061C81.7437 104.711 77.4181 99.8499 76.4485 97.3587C74.8798 93.3264 55.4215 97.3587 55.4215 97.3587L55.3831 97.3688C54.7758 97.5353 48.2783 99.2855 43.6996 98.1018L43.4405 98.0307L43.4041 98.0206L43.1814 97.9536L43.1005 97.9272L42.9264 97.8683L42.815 97.8277L42.6774 97.7769L42.5357 97.7181L42.4345 97.6775L42.2544 97.5962L42.1977 97.5698L41.9953 97.4683L41.9649 97.4541C41.7399 97.3329 41.5228 97.1972 41.3151 97.048H41.305C43.0703 98.4346 44.6972 99.9897 46.163 101.691L46.2096 101.748L46.4646 102.061L46.5314 102.144C46.6151 102.25 46.6974 102.355 46.7784 102.461L46.8269 102.524C46.92 102.648 47.0118 102.774 47.1022 102.9L47.169 102.997C47.2324 103.086 47.2945 103.176 47.3552 103.267L47.4605 103.425L47.5961 103.628L47.7074 103.807L47.8208 104.01C47.8572 104.073 47.8957 104.136 47.9301 104.199L47.9443 104.225C48.003 104.333 48.0617 104.439 48.1163 104.546L48.173 104.662C48.2202 104.757 48.2648 104.851 48.3066 104.944L48.3532 105.048L48.3896 105.135C43.9364 105.08 37.5806 105.498 33.4614 107.904C26.557 111.937 13.3757 109.456 13.3757 109.456C13.3757 109.456 26.2432 116.278 27.4982 119.999C28.0002 121.486 30.4474 123.611 33.2124 125.632L33.8075 126.062C32.9956 126.705 32.2497 127.427 31.581 128.218C25.3061 135.662 10.2402 143.105 10.2402 143.105H10.2848L10.4143 143.117L10.637 143.137L11.0418 143.176H11.1106C14.3331 143.48 25.6846 144.652 32.1619 146.605C32.3947 146.676 32.6214 146.747 32.84 146.818C34.7225 147.438 45.3898 146.508 52.612 144.337C52.8144 144.276 53.0168 144.222 53.2192 144.169L53.3994 144.124C53.5505 144.088 53.7023 144.053 53.8548 144.021L54.035 143.982C54.2374 143.941 54.4398 143.903 54.6422 143.87H54.6382C54.8406 143.836 55.043 143.807 55.2454 143.781L55.4296 143.759L55.8729 143.71L56.0652 143.692C56.2487 143.675 56.4316 143.663 56.6138 143.653H56.6724C56.8749 143.643 57.0631 143.635 57.2595 143.631H57.4619H58.0691H58.4861L58.7695 143.641L59.1743 143.661L59.4638 143.681L59.7148 143.702L60.0366 143.73L60.1884 143.746L60.5345 143.783L60.7815 143.813L60.9677 143.838L61.241 143.876L61.3928 143.899C61.3928 143.941 61.3766 143.988 61.3685 144.033C61.3685 144.033 61.6296 145.493 63.3421 146.92C60.4414 147.756 58.0347 148.719 56.2373 149.762C56.13 149.821 56.0348 149.884 55.9296 149.945C56.0025 149.945 56.0733 149.929 56.1502 149.923C56.2271 149.917 56.2858 149.923 56.3526 149.923H130.16C130.228 149.923 130.295 149.923 130.362 149.923C130.429 149.923 130.506 149.935 130.579 149.945C130.638 149.952 130.698 149.961 130.757 149.974C130.82 149.982 130.883 149.996 130.945 150.014C130.81 149.928 130.675 149.844 130.54 149.762C128.293 148.447 125.095 147.279 121.178 146.311C122.354 145.702 123.01 145.011 123.284 144.28C123.514 144.228 123.749 144.177 123.994 144.128C124.952 143.933 125.919 143.79 126.893 143.7L127.297 143.667L127.5 143.651C129.749 143.478 132.01 143.706 134.18 144.325C141.398 146.496 152.067 147.425 153.952 146.806C154.17 146.733 154.397 146.662 154.63 146.593C161.093 144.642 172.442 143.468 175.681 143.164H175.75L176.155 143.125L176.377 143.105L176.507 143.093H176.551C176.551 143.093 161.496 135.647 155.219 128.204ZM146.565 51.4968L146.462 51.5192C146.462 51.4867 146.476 51.4542 146.482 51.4217L146.565 51.4968ZM116.023 68.4199C115.58 68.6595 115.189 68.8991 114.861 69.1204C114.581 68.1476 114.167 67.2188 113.63 66.3611C115.226 66.2063 116.776 65.7437 118.197 64.9987C117.446 66.1682 116.721 67.3113 116.023 68.4199ZM117.387 74.1273C118.009 74.4212 118.652 74.6656 119.312 74.8582C117.76 75.758 116.401 76.9565 115.312 78.3849C115.95 76.9779 116.646 75.5566 117.387 74.1273ZM97.3884 99.8296C97.9593 90.3702 98.3074 80.1351 97.8216 72.9293C99.7787 74.2157 102.029 74.9841 104.362 75.1627L104.372 75.1242C104.677 75.1567 104.852 75.1627 104.852 75.1627C105.428 73.3517 105.244 71.5325 104.617 69.8006C107.402 71.1969 110.597 71.5352 113.612 70.7528C113.757 71.012 113.918 71.2622 114.094 71.502C110.177 77.7961 107.511 82.3137 107.511 82.3137C104.797 86.4089 100.323 100.729 96.2569 115.112C96.6334 110.82 97.0504 105.46 97.3884 99.8296ZM109.398 97.3485C108.649 99.2733 105.898 102.609 103.226 105.574C106.732 96.7191 110.246 89.219 112.207 85.1846C112.764 84.0415 113.298 82.8883 113.827 81.733C115.841 83.1543 118.28 83.3999 120.709 83.0487C120.105 85.0288 119.972 87.1232 120.32 89.1641C120.523 89.1763 120.725 89.1783 120.927 89.1743C120.952 89.3184 120.968 89.3956 120.968 89.3956C121.894 89.4528 122.822 89.3421 123.709 89.0687C122.628 91.2656 121.545 93.5355 120.482 95.8359C115.426 95.3324 110.183 95.3344 109.4 97.3465L109.398 97.3485ZM146.737 51.8359C146.701 51.7547 146.679 51.712 146.679 51.712C146.638 51.6207 146.608 51.5557 146.592 51.5212C146.698 51.6159 146.804 51.7066 146.91 51.7933L146.737 51.8359ZM132.746 50.3598C134.471 49.7669 135.999 48.6157 137.319 47.2391C138.223 49.9151 139.943 52.2379 142.236 53.8784C141.498 54.6332 140.852 55.4728 140.311 56.3798C140.203 56.5565 140.108 56.7372 139.997 56.9179C138.984 54.2959 137.188 52.0517 134.856 50.4918C132.753 52.4186 132.113 55.1941 132.182 58.0041C132.182 58.195 132.196 58.3858 132.206 58.5787C131.058 57.6392 129.764 56.8962 128.374 56.3798C129.87 54.2561 131.354 52.2338 132.753 50.3598H132.746Z" fill="url(#paint1_linear_32_3043)"/>
<path d="M88.5153 112.225C88.5153 112.225 78.4553 102.134 76.9311 98.1607C75.4069 94.1873 56.5073 98.1607 56.5073 98.1607C56.5073 98.1607 47.0585 100.912 42.7896 97.8542C42.7896 97.8542 49.4956 103.052 50.1049 107.332C50.7141 111.612 74.492 122.621 74.492 122.621L88.5153 135.767L93.3936 133.016L88.5153 112.225Z" fill="#FF8000"/>
<path d="M93.3932 133.018L88.515 135.767L84.5942 132.1L74.4936 122.623C74.4936 122.623 50.7178 111.606 50.1065 107.342C49.9604 106.483 49.6607 105.658 49.222 104.906C47.299 101.405 43.024 98.041 42.7993 97.8643C47.0703 100.91 56.5069 98.1648 56.5069 98.1648C56.5069 98.1648 75.4065 94.1894 76.9307 98.1648C78.4549 102.14 88.515 112.229 88.515 112.229L93.3932 133.018Z" fill="#9347B2"/>
<path opacity="0.1" d="M86.9924 132.1H84.5958L74.4953 122.622C74.4953 122.622 50.7195 111.606 50.1082 107.342C49.962 106.483 49.6624 105.658 49.2236 104.905C51.1477 104.898 53.0708 104.995 54.9844 105.196C61.6904 111.922 71.1392 115.287 71.1392 115.287C80.592 109.169 86.9924 132.1 86.9924 132.1Z" fill="black"/>
<path d="M86.6874 133.018H75.1031L43.7064 131.8C43.7064 131.8 38.9719 129.038 34.9296 126.04C32.2435 124.05 29.8692 121.952 29.3794 120.487C28.1649 116.818 15.6616 110.091 15.6616 110.091C15.6616 110.091 28.4644 112.527 35.1705 108.562C41.8765 104.597 54.6793 106.126 54.6793 106.126C61.3854 112.852 70.8342 116.217 70.8342 116.217C76.0747 112.826 80.376 118.367 83.1714 123.975C84.5933 126.885 85.7694 129.91 86.6874 133.018Z" fill="#B247A7"/>
<path d="M97.347 112.225C97.347 112.225 107.407 102.134 108.931 98.1607C110.455 94.1873 129.355 98.1607 129.355 98.1607C129.355 98.1607 138.804 100.912 143.073 97.8542C143.073 97.8542 136.367 103.052 135.757 107.332C135.148 111.612 111.37 122.621 111.37 122.621L97.347 135.767L92.4688 133.016L97.347 112.225Z" fill="#FF8000"/>
<path d="M143.071 97.8623C142.846 98.0389 138.571 101.405 136.648 104.908C136.209 105.659 135.909 106.485 135.764 107.344C135.156 111.624 111.376 122.633 111.376 122.633L101.268 132.11L97.347 135.767L92.4688 133.016L97.347 112.225C97.347 112.225 107.407 102.134 108.931 98.1607C110.455 94.1873 129.355 98.1607 129.355 98.1607C129.355 98.1607 138.8 100.91 143.071 97.8623Z" fill="#9347B2"/>
<path opacity="0.1" d="M87.407 129.27C86.9819 129.666 86.2674 129.995 86.3949 130.563C86.4511 130.754 86.5659 130.922 86.7228 131.043C87.5163 131.749 88.8016 132.299 88.6943 133.359C88.6336 133.968 88.1033 134.401 87.8442 134.949C87.3037 136.094 88.1559 137.554 89.3562 137.948C90.5566 138.342 91.9006 137.879 92.8904 137.089C93.103 136.918 93.3297 136.726 93.6009 136.726C93.808 136.754 94.009 136.817 94.196 136.91C95.0057 137.191 95.9186 136.569 96.2647 135.775C96.6108 134.982 96.5481 134.076 96.4772 133.213C96.9367 133.605 97.6917 133.392 98.0824 132.927C98.4731 132.462 98.5864 131.834 98.6897 131.238L99.4123 127.053C99.9912 126.884 100.222 126.101 99.9568 125.559C99.6916 125.016 99.0742 124.72 98.4751 124.663C97.8759 124.606 97.2768 124.742 96.6857 124.856C95.1394 125.155 93.5662 125.291 91.9917 125.262C90.6861 125.236 89.0101 123.62 88.2895 125.059C87.6317 126.346 88.6012 128.159 87.407 129.27Z" fill="black"/>
<path opacity="0.1" d="M136.649 104.905C136.21 105.657 135.91 106.483 135.765 107.342C135.157 111.622 111.377 122.631 111.377 122.631L101.269 132.108H98.5767C98.5767 132.108 104.977 109.169 114.428 115.283C114.428 115.283 123.877 111.918 130.583 105.192C132.598 104.983 134.623 104.887 136.649 104.905Z" fill="black"/>
<path d="M170.217 110.085C170.217 110.085 157.72 116.812 156.499 120.481C156.042 121.857 153.916 123.788 151.439 125.666C147.299 128.803 142.174 131.794 142.174 131.794L110.777 133.012H99.1851C99.9976 130.25 101.012 127.551 102.221 124.939C104.992 119.033 109.492 112.621 115.036 116.201C115.036 116.201 124.485 112.836 131.191 106.11C131.191 106.11 143.994 104.581 150.7 108.546C157.406 112.511 170.217 110.085 170.217 110.085Z" fill="#B247A7"/>
<path d="M141.251 39.607C141.251 39.607 122.33 61.6567 114.263 80.4173C113.433 82.3482 112.577 84.275 111.67 86.1612C106.833 96.2602 92.2768 128.393 92.7849 148.493L87.2974 149.665C87.2974 149.665 101.319 92.1812 107.112 83.3146C107.112 83.3146 132.718 39.2842 141.253 35.0042L141.251 39.607Z" fill="#635151"/>
<path d="M97.2747 100.607C96.9428 106.162 96.5379 111.45 96.1796 115.667C96.1088 116.536 96.0359 117.358 95.9772 118.131C95.5987 122.367 95.3234 125.059 95.3234 125.059V125.075C95.2526 126.399 94.8417 128.411 94.1778 130.915C93.9591 131.743 93.7081 132.626 93.4369 133.554C93.3843 133.723 93.3357 133.893 93.2851 134.064C93.053 134.846 92.804 135.658 92.5382 136.5C92.4289 136.843 92.3196 137.191 92.2062 137.544C91.599 139.448 90.9188 141.479 90.1821 143.594C89.5242 145.505 88.8259 147.484 88.1032 149.501L87.9838 149.828C87.9656 149.876 87.9474 149.929 87.9292 149.98H84.1177C84.1339 149.927 84.148 149.876 84.1602 149.828C84.7431 147.757 85.2795 145.728 85.7795 143.759C86.2795 141.789 86.7552 139.838 87.1782 138.007C87.3523 137.258 87.5196 136.527 87.6802 135.812C87.7328 135.58 87.7834 135.351 87.832 135.124C87.8563 135.022 87.8786 134.921 87.8988 134.823C88.0081 134.338 88.1113 133.861 88.2105 133.402C88.251 133.231 88.2874 133.059 88.3239 132.892L88.415 132.464C88.6437 131.394 88.8542 130.379 89.0465 129.43C89.2044 128.653 89.3481 127.924 89.4817 127.238C89.6699 126.263 89.838 125.384 89.9776 124.623C90.3825 122.452 90.5849 121.201 90.5849 121.201C90.5941 121.173 90.6015 121.145 90.6071 121.116C90.8541 120.215 91.0828 119.289 91.2933 118.343C92.5301 112.844 93.2527 106.668 93.6474 100.605C94.6878 84.6873 93.4835 69.5408 93.4835 69.5408L96.1817 65.8374C98.4669 70.3062 98.1208 86.3461 97.2747 100.607Z" fill="#635151"/>
<path d="M134.63 76.596C134.63 76.596 129.058 85.6291 123.532 97.1453C122.992 98.2769 122.452 99.4274 121.912 100.597C119.811 105.141 117.939 109.787 116.301 114.519C116.145 114.974 115.994 115.431 115.848 115.884C115.573 116.73 115.312 117.575 115.067 118.409C114.969 118.736 114.874 119.063 114.785 119.388C114.611 120.005 114.447 120.618 114.291 121.225C114.067 122.115 113.862 122.996 113.684 123.865C113.684 123.865 112.538 127.4 110.986 133.002C110.889 133.363 110.783 133.728 110.684 134.106C110.613 134.366 110.541 134.632 110.468 134.902C109.913 136.973 109.316 139.267 108.713 141.732C108.51 142.577 108.308 143.438 108.093 144.323C107.676 146.093 107.257 147.937 106.853 149.829C106.853 149.882 106.83 149.931 106.822 149.981H102.999C102.999 149.929 103.015 149.878 103.021 149.829C103.284 147.811 103.549 145.84 103.83 143.941C104.023 142.581 104.221 141.253 104.419 139.978C104.768 137.734 105.124 135.637 105.478 133.747C105.527 133.499 105.573 133.255 105.618 133.016C105.618 133.016 105.618 132.997 105.618 132.987C106.011 130.825 106.524 128.687 107.154 126.582C107.311 126.085 107.494 125.597 107.703 125.12C107.703 125.12 108.219 123.792 109.12 121.558L109.577 120.411C110.184 118.929 110.897 117.153 111.717 115.165C111.83 114.887 111.947 114.602 112.067 114.314C113.735 110.288 115.765 105.496 117.937 100.603C118.52 99.2914 119.111 97.9636 119.71 96.6621C124.849 85.4098 130.452 74.5494 133.924 72.0642L134.63 76.596Z" fill="#635151"/>
<path d="M41.5739 27.0716C41.5739 27.0716 60.6253 51.6857 69.6166 70.4889C69.6166 70.4889 90.6497 111.868 90.0404 135.972L95.5258 137.146C95.5258 137.146 89.4291 108.087 83.1785 87.7653C79.9702 77.3292 73.7884 67.3662 68.0539 58.0834C59.7994 44.7236 47.1019 25.2605 41.5698 22.4871L41.5739 27.0716Z" fill="#635151"/>
<path d="M129.87 150.081C129.811 150.063 129.75 150.049 129.688 150.041C129.631 150.028 129.572 150.019 129.514 150.012C129.443 150.012 129.374 149.994 129.312 149.99C129.249 149.986 129.18 149.99 129.109 149.99H57.4316C57.3648 149.99 57.298 149.99 57.2291 149.99C57.1603 149.99 57.0854 150.002 57.0166 150.012C57.1138 149.951 57.219 149.89 57.3162 149.832C59.063 148.794 61.4009 147.848 64.2165 147.022C69.8214 145.377 77.321 144.205 85.7779 143.763C86.7718 143.708 87.7798 143.667 88.7979 143.635L90.1845 143.598C91.0893 143.58 92.0062 143.568 92.9272 143.568C93.0831 143.568 93.2349 143.568 93.3908 143.568C96.9998 143.568 100.496 143.7 103.819 143.943C105.277 144.05 106.697 144.179 108.08 144.329C112.22 144.748 116.327 145.451 120.371 146.433C124.174 147.387 127.281 148.54 129.463 149.836C129.604 149.914 129.739 149.996 129.87 150.081Z" fill="#635151"/>
<path opacity="0.1" d="M86.6885 133.018H75.1042L43.7074 131.8C43.7074 131.8 38.9729 129.039 34.9307 126.04C41.3473 120.343 51.8547 120.456 54.3748 121.863C57.1195 123.382 62.3014 122.773 62.3014 122.773C66.1088 114.134 76.4988 119.36 83.1786 123.959C84.5992 126.875 85.7733 129.905 86.6885 133.018Z" fill="black"/>
<path d="M89.125 129.501C89.125 129.501 68.0919 110.544 62.3008 123.692C62.3008 123.692 57.1189 124.302 54.3762 122.775C51.6334 121.248 39.4399 121.246 33.3431 128.584C27.2464 135.921 12.6157 143.261 12.6157 143.261C12.6157 143.261 27.4042 144.536 34.5637 146.93C36.3854 147.539 46.7572 146.623 53.7669 144.494C60.7766 142.364 68.4016 145.716 68.4016 145.716L90.0399 136.839L89.125 129.501Z" fill="#FF8000"/>
<path d="M90.0408 136.839L68.4025 145.716C66.1906 144.817 63.8684 144.221 61.4981 143.944C59.1258 143.661 56.4053 143.69 53.7698 144.494C46.7581 146.634 36.3944 147.552 34.5666 146.93C27.4072 144.536 12.6187 143.261 12.6187 143.261C12.6187 143.261 27.2513 135.924 33.3461 128.584C39.4408 121.244 51.6323 121.246 54.3771 122.773C57.1218 124.3 62.3017 123.691 62.3017 123.691C68.0928 110.542 89.1258 129.5 89.1258 129.5L89.5651 133.034L90.0408 136.839Z" fill="#9347B2"/>
<path opacity="0.1" d="M151.429 125.668C147.289 128.805 142.164 131.796 142.164 131.796L110.767 133.014H99.1851C99.9976 130.252 101.012 127.553 102.221 124.941C108.745 120.186 120.4 113.502 124.487 122.771C124.487 122.771 129.669 123.38 132.412 121.853C134.877 120.48 144.986 120.336 151.429 125.668Z" fill="black"/>
<path d="M97.6617 129.501C97.6617 129.501 118.695 110.544 124.486 123.692C124.486 123.692 129.668 124.302 132.41 122.775C135.153 121.248 147.347 121.246 153.444 128.584C159.54 135.921 174.171 143.261 174.171 143.261C174.171 143.261 159.386 144.536 152.225 146.934C150.403 147.543 140.031 146.627 133.022 144.498C126.012 142.368 118.399 145.716 118.399 145.716L96.7407 136.839L97.6617 129.501Z" fill="#FF8000"/>
<path d="M174.173 143.261C174.173 143.261 159.386 144.536 152.225 146.934C150.403 147.543 140.031 146.627 133.022 144.498C129.528 143.43 125.887 143.73 123.103 144.295C121.494 144.616 119.918 145.092 118.399 145.716L96.7407 136.839L97.2933 132.415L97.6556 129.501C97.6556 129.501 118.689 110.544 124.48 123.692C124.48 123.692 129.662 124.302 132.404 122.775C135.147 121.248 147.341 121.246 153.437 128.584C159.534 135.921 174.173 143.261 174.173 143.261Z" fill="#9347B2"/>
<path opacity="0.1" d="M123.109 144.294C121.498 144.615 119.92 145.091 118.399 145.716L96.7407 136.839L97.2933 132.415C104.036 131.562 116.861 135.921 116.861 135.921C116.861 135.921 125.358 140.676 123.109 144.294Z" fill="black"/>
<path opacity="0.1" d="M90.0391 136.839L68.4009 145.716C66.189 144.817 63.8667 144.221 61.4964 143.943C61.4514 143.824 61.4155 143.701 61.3892 143.576C63.5894 131.071 82.2603 132.135 89.5675 133.046L90.0391 136.839Z" fill="black"/>
<path d="M122.419 144.435C122.154 145.147 121.516 145.826 120.375 146.429C119.739 146.759 119.075 147.031 118.391 147.241C115.782 148.063 114.013 148.958 112.829 149.84C112.758 149.892 112.695 149.941 112.626 149.992H73.1551C73.1247 149.931 73.0944 149.882 73.0721 149.84C73.0134 149.738 72.977 149.687 72.977 149.687C68.3558 149.543 65.7183 148.299 64.2245 147.03C62.5606 145.623 62.3076 144.187 62.3076 144.187C62.3076 144.144 62.3238 144.098 62.3319 144.055C64.2366 133.836 77.2439 132.789 85.8122 133.243C86.6623 133.29 87.4679 133.347 88.2149 133.414L88.6784 133.457L89.6318 133.558L90.0366 133.605C90.5123 133.66 90.9455 133.719 91.3321 133.773C91.5487 133.802 91.7369 133.832 91.9393 133.857C92.6215 133.96 93.0911 134.043 93.2935 134.08L93.4068 134.102C93.5475 133.99 93.6963 133.889 93.8521 133.8C94.0469 133.687 94.2499 133.588 94.4594 133.505C94.5485 133.469 94.6396 133.438 94.7306 133.408C95.5444 133.148 96.3893 132.999 97.2426 132.965C97.5199 132.947 97.8033 132.937 98.0968 132.935C98.4591 132.935 98.8336 132.935 99.2182 132.951C99.6028 132.967 99.9469 132.988 100.321 133.018C100.388 133.018 100.455 133.018 100.524 133.034C102.188 133.19 103.843 133.434 105.481 133.765C107.236 134.11 108.952 134.523 110.471 134.925C113.65 135.765 115.964 136.549 115.964 136.549C115.964 136.549 123.743 140.894 122.419 144.435Z" fill="#B247A7"/>
<path d="M94.8732 63.0585C99.438 61.8956 102.534 58.5644 101.788 55.6179C101.042 52.6715 96.7365 51.2257 92.1716 52.3886C87.6068 53.5514 84.511 56.8827 85.257 59.8291C86.003 62.7755 90.3083 64.2213 94.8732 63.0585Z" fill="#FF8000"/>
<path d="M99.9954 54.0265C99.9954 54.0265 112.213 47.04 118.124 52.6458C118.124 52.6458 112.786 62.9763 99.6128 57.7015L99.9954 54.0265Z" fill="#9347B2"/>
<path opacity="0.05" d="M98.0708 54.0532C98.0708 54.0532 105.394 42.0091 113.27 44.0476C113.27 44.0476 113.58 55.6775 99.5059 57.448L98.0708 54.0532Z" fill="black"/>
<path d="M99.0299 56.9769L98.8275 56.4977L97.5928 53.576C97.5928 53.576 100.789 48.3113 105.242 45.3348C107.521 43.8059 110.126 42.878 112.794 43.5704C112.792 43.5704 113.104 55.2003 99.0299 56.9769Z" fill="#B247A7"/>
<path opacity="0.05" d="M105.241 45.3345C105.067 48.6338 103.569 52.6336 98.8508 56.5137L98.8285 56.4994L97.5938 53.5778C97.5938 53.5778 100.788 48.311 105.241 45.3345Z" fill="black"/>
<path d="M98.3716 56.5116L97.6915 56.0344L95.3495 54.4C95.3495 54.4 95.2666 48.3089 97.4122 43.4198C98.5295 40.8758 100.246 38.6627 102.906 37.814C102.906 37.814 109.343 47.4927 98.3716 56.5116Z" fill="#9347B2"/>
<path opacity="0.05" d="M97.7826 56.0407H97.6915L95.3495 54.4062C95.3495 54.4062 95.2666 48.3151 97.4122 43.426C98.9202 46.301 99.6671 50.4105 97.7826 56.0407Z" fill="black"/>
<path d="M93.6238 55.8622C93.6238 55.8622 85.9887 44.0151 91.2393 37.792C91.2393 37.792 101.82 42.5634 97.3118 56.049L93.6238 55.8622Z" fill="#FF8000"/>
<path opacity="0.05" d="M91.8025 56.5017C91.8025 56.5017 80.8963 47.5924 83.9872 40.0415C83.9872 40.0415 95.5249 41.3085 95.365 55.5352L91.8025 56.5017Z" fill="black"/>
<path d="M91.3264 56.5017C91.3264 56.5017 80.4222 47.5904 83.503 40.0415C83.503 40.0415 95.0407 41.3085 94.8808 55.5352L91.3264 56.5017Z" fill="#9347B2"/>
<path opacity="0.05" d="M90.0968 58.0344C90.0968 58.0344 76.4378 54.6681 75.9985 46.5223C75.9985 46.5223 86.9594 42.7133 92.8962 55.6345L90.0968 58.0344Z" fill="black"/>
<path d="M89.858 58.5117C89.858 58.5117 76.199 55.1454 75.7598 46.9996C75.7598 46.9996 86.7206 43.1906 92.6575 56.1118L89.858 58.5117Z" fill="#FF8000"/>
<path opacity="0.05" d="M89.1493 60.8466C89.1493 60.8466 75.3506 63.5774 71.5229 56.3798C71.5229 56.3798 79.8564 48.2868 90.6756 57.4843L89.1493 60.8466Z" fill="black"/>
<path d="M88.9101 61.3178C88.9101 61.3178 75.1114 64.0487 71.2837 56.851C71.2837 56.851 79.6172 48.758 90.4363 57.9555L88.9101 61.3178Z" fill="#9347B2"/>
<path opacity="0.05" d="M91.1647 60.3737C91.1647 60.3737 81.1087 70.2372 73.9756 66.3145C73.9756 66.3145 76.5321 54.9648 90.6061 56.721L91.1647 60.3737Z" fill="black"/>
<path d="M91.6428 60.8466C91.6428 60.8466 81.5868 70.7101 74.4536 66.7874C74.4536 66.7874 77.0101 55.4377 91.0841 57.1939L91.6428 60.8466Z" fill="#FF8000"/>
<path opacity="0.05" d="M90.8044 59.2791C90.8044 59.2791 92.4642 73.2886 85.0153 76.5656C85.0153 76.5656 77.6068 67.6117 87.5799 57.4944L90.8044 59.2791Z" fill="black"/>
<path d="M91.5202 59.5171C91.5202 59.5171 93.18 73.5266 85.7311 76.8036C85.7311 76.8036 78.3227 67.8497 88.2957 57.7324L91.5202 59.5171Z" fill="#9347B2"/>
<path opacity="0.05" d="M96.173 60.2495C96.173 60.2495 97.8328 74.259 90.3839 77.5361C90.3839 77.5361 82.9755 68.5821 92.9485 58.4648L96.173 60.2495Z" fill="black"/>
<path d="M96.651 60.2495C96.651 60.2495 98.3108 74.259 90.8619 77.5361C90.8619 77.5361 83.4535 68.5821 93.4265 58.4648L96.651 60.2495Z" fill="#FF8000"/>
<path opacity="0.05" d="M94.8877 60.5322C94.8877 60.5322 106.492 68.5014 104.047 76.2777C104.047 76.2777 92.4506 75.9752 91.4243 61.785L94.8877 60.5322Z" fill="black"/>
<path d="M95.3637 60.5322C95.3637 60.5322 106.97 68.5014 104.525 76.2777C104.525 76.2777 92.9286 75.9752 91.9023 61.785L95.3637 60.5322Z" fill="#9347B2"/>
<path opacity="0.05" d="M98.0555 58.6782C98.0555 58.6782 112.397 62.1501 114.002 71.6076C114.002 71.6076 103.42 76.3891 95.5557 61.5593L98.0555 58.6782Z" fill="black"/>
<path d="M98.5335 58.4387C98.5335 58.4387 112.875 61.9106 114.48 71.3681C114.48 71.3681 103.898 76.1496 96.0337 61.3198L98.5335 58.4387Z" fill="#FF8000"/>
<path d="M93.6238 55.8622C93.6238 55.8622 85.9887 44.0151 91.2393 37.792C91.2393 37.792 101.82 42.5634 97.3118 56.049L93.6238 55.8622Z" fill="#FF8000"/>
<path d="M93.6238 55.8622C93.6238 55.8622 85.9887 44.0151 91.2393 37.792C91.2393 37.792 101.82 42.5634 97.3118 56.049L93.6238 55.8622Z" fill="#B247A7"/>
<path d="M89.858 58.5117C89.858 58.5117 76.199 55.1454 75.7598 46.9996C75.7598 46.9996 86.7206 43.1906 92.6575 56.1118L89.858 58.5117Z" fill="#FF8000"/>
<path d="M89.858 58.5117C89.858 58.5117 76.199 55.1454 75.7598 46.9996C75.7598 46.9996 86.7206 43.1906 92.6575 56.1118L89.858 58.5117Z" fill="#B247A7"/>
<path d="M91.6428 60.8466C91.6428 60.8466 81.5868 70.7101 74.4536 66.7874C74.4536 66.7874 77.0101 55.4377 91.0841 57.1939L91.6428 60.8466Z" fill="#FF8000"/>
<path d="M91.6428 60.8466C91.6428 60.8466 81.5868 70.7101 74.4536 66.7874C74.4536 66.7874 77.0101 55.4377 91.0841 57.1939L91.6428 60.8466Z" fill="#B247A7"/>
<path d="M96.651 60.2495C96.651 60.2495 98.3108 74.259 90.8619 77.5361C90.8619 77.5361 83.4535 68.5821 93.4265 58.4648L96.651 60.2495Z" fill="#FF8000"/>
<path d="M96.651 60.2495C96.651 60.2495 98.3108 74.259 90.8619 77.5361C90.8619 77.5361 83.4535 68.5821 93.4265 58.4648L96.651 60.2495Z" fill="#B247A7"/>
<path d="M98.5335 58.4387C98.5335 58.4387 112.875 61.9106 114.48 71.3681C114.48 71.3681 103.898 76.1496 96.0337 61.3198L98.5335 58.4387Z" fill="#FF8000"/>
<path d="M98.5335 58.4387C98.5335 58.4387 112.875 61.9106 114.48 71.3681C114.48 71.3681 103.898 76.1496 96.0337 61.3198L98.5335 58.4387Z" fill="#B247A7"/>
<path opacity="0.05" d="M99.9072 56.4043C99.9072 56.4043 114.649 56.9444 118.1 65.8922C118.1 65.8922 108.68 72.6919 98.0308 59.728L99.9072 56.4043Z" fill="black"/>
<path opacity="0.05" d="M100.146 55.2083C100.146 55.2083 114.888 55.7483 118.339 64.6961C118.339 64.6961 108.919 71.4958 98.2695 58.532L100.146 55.2083Z" fill="black"/>
<path d="M100.146 55.927C100.146 55.927 114.888 56.4671 118.339 65.4149C118.339 65.4149 108.919 72.2146 98.2695 59.2507L100.146 55.927Z" fill="#9347B2"/>
<path d="M103.797 59.7482C103.38 61.418 102.48 62.9264 101.209 64.0829C99.9383 65.2394 98.3542 65.9921 96.657 66.2457C94.9598 66.4993 93.2258 66.2426 91.6741 65.5078C90.1224 64.7731 88.8226 63.5935 87.9392 62.118C87.0558 60.6425 86.6282 58.9374 86.7107 57.2182C86.7932 55.499 87.3819 53.843 88.4025 52.4594C89.4231 51.0758 90.8298 50.0267 92.4446 49.4449C94.0595 48.863 95.8101 48.7744 97.4752 49.1903C98.5815 49.4669 99.6227 49.9595 100.539 50.6399C101.456 51.3203 102.23 52.1751 102.817 53.1556C103.404 54.136 103.792 55.2229 103.961 56.3541C104.129 57.4853 104.073 58.6386 103.797 59.7482Z" fill="#9347B2"/>
<path d="M99.2044 56.4001C99.3765 55.2407 98.498 54.6194 97.2956 54.2032L97.6863 52.6337L96.741 52.3962L96.3605 53.925C96.1095 53.8621 95.8524 53.8032 95.5973 53.7443L95.9799 52.2053L95.0286 51.9678L94.6298 53.5372C94.4274 53.4906 94.225 53.4439 94.0226 53.3931L92.7089 53.0642L92.4559 54.0794C92.4559 54.0794 93.1623 54.2418 93.1481 54.2519C93.28 54.2677 93.4004 54.3349 93.4834 54.439C93.5663 54.5431 93.6051 54.6757 93.5914 54.8083L93.1461 56.597C93.1798 56.6056 93.213 56.6165 93.2453 56.6295L93.1441 56.6051L92.5206 59.1106C92.507 59.1545 92.4849 59.1952 92.4555 59.2305C92.4261 59.2657 92.39 59.2948 92.3494 59.3159C92.3087 59.3371 92.2643 59.3499 92.2186 59.3537C92.1729 59.3575 92.127 59.3522 92.0834 59.338C92.0834 59.3522 91.3911 59.1654 91.3911 59.1654L90.9175 60.2598L92.1563 60.5704L92.8344 60.7471L92.4397 62.3348L93.391 62.5724L93.7817 61.0009C94.0408 61.0719 94.2938 61.1369 94.5407 61.2039L94.1521 62.7673L95.1055 63.0048L95.5002 61.4212C97.1195 61.7298 98.3462 61.6059 98.8603 60.1319C99.2651 58.9461 98.8401 58.2619 97.9859 57.8152C98.6093 57.6589 99.0789 57.2488 99.2044 56.4001ZM97.0284 59.4619C96.7349 60.6476 94.7432 60.006 94.0974 59.8456L94.6197 57.7421C95.2634 57.9046 97.3341 58.2254 97.0264 59.4619H97.0284ZM97.3219 56.3798C97.0527 57.4599 95.3949 56.9097 94.8585 56.7858L95.3322 54.8773C95.8706 55.0072 97.6013 55.259 97.3219 56.3798Z" fill="white"/>
<path d="M42.8517 27.8673C47.4166 26.7044 50.5123 23.3732 49.7663 20.4268C49.0203 17.4804 44.715 16.0345 40.1502 17.1974C35.5853 18.3603 32.4895 21.6915 33.2355 24.6379C33.9815 27.5844 38.2868 29.0302 42.8517 27.8673Z" fill="#FF8000"/>
<path d="M47.9729 18.8407C47.9729 18.8407 60.1907 11.8542 66.1013 17.4601C66.1013 17.4601 60.7636 27.7905 47.5903 22.5157L47.9729 18.8407Z" fill="#9347B2"/>
<path opacity="0.05" d="M46.0469 18.865C46.0469 18.865 53.3703 6.82083 61.2463 8.85932C61.2463 8.85932 61.556 20.4893 47.482 22.2597L46.0469 18.865Z" fill="black"/>
<path d="M47.0055 21.7884L46.8031 21.3093L45.5684 18.3876C45.5684 18.3876 48.7665 13.133 53.2197 10.1463C55.4989 8.61744 58.104 7.68957 60.7718 8.38192C60.7678 8.38192 61.0795 20.0139 47.0055 21.7884Z" fill="#B247A7"/>
<path opacity="0.05" d="M53.22 10.1462C53.046 13.4456 51.5481 17.4454 46.8298 21.3254L46.8075 21.3112L45.5728 18.3895C45.5728 18.3895 48.7669 13.1329 53.22 10.1462Z" fill="black"/>
<path d="M46.3376 21.3258L45.6676 20.8487L43.3256 19.2142C43.3256 19.2142 43.2426 13.1231 45.3882 8.23401C46.5056 5.68996 48.2221 3.47687 50.8818 2.62817C50.8818 2.62817 57.3186 12.3049 46.3376 21.3258Z" fill="#9347B2"/>
<path opacity="0.05" d="M45.7587 20.8483H45.6676L43.3256 19.2139C43.3256 19.2139 43.2426 13.1228 45.3882 8.23364C46.8962 11.1127 47.6432 15.2242 45.7587 20.8483Z" fill="black"/>
<path d="M41.6018 20.674C41.6018 20.674 33.9667 8.82683 39.2174 2.60376C39.2174 2.60376 49.7977 7.37512 45.2899 20.8608L41.6018 20.674Z" fill="#FF8000"/>
<path opacity="0.05" d="M39.7805 21.3154C39.7805 21.3154 28.8763 12.4041 31.9571 4.85522C31.9571 4.85522 43.4948 6.12217 43.3349 20.3489L39.7805 21.3154Z" fill="black"/>
<path d="M39.3024 21.3154C39.3024 21.3154 28.3983 12.4041 31.4791 4.85522C31.4791 4.85522 43.0168 6.12217 42.8569 20.3489L39.3024 21.3154Z" fill="#9347B2"/>
<path opacity="0.05" d="M38.0729 22.8465C38.0729 22.8465 24.4139 19.4801 23.9746 11.3343C23.9746 11.3343 34.9354 7.52532 40.8723 20.4466L38.0729 22.8465Z" fill="black"/>
<path d="M37.837 23.3257C37.837 23.3257 24.178 19.9594 23.7388 11.8135C23.7388 11.8135 34.6996 8.00457 40.6365 20.9258L37.837 23.3257Z" fill="#FF8000"/>
<path opacity="0.05" d="M37.1274 25.6503C37.1274 25.6503 23.3287 28.3811 19.501 21.1835C19.501 21.1835 27.8344 13.0905 38.6536 22.288L37.1274 25.6503Z" fill="black"/>
<path d="M36.8886 26.1276C36.8886 26.1276 23.0899 28.8584 19.2622 21.6608C19.2622 21.6608 27.5957 13.5678 38.4148 22.7653L36.8886 26.1276Z" fill="#9347B2"/>
<path opacity="0.05" d="M39.1428 25.1852C39.1428 25.1852 29.0868 35.0487 21.9536 31.126C21.9536 31.126 24.5101 19.7763 38.5841 21.5326L39.1428 25.1852Z" fill="black"/>
<path d="M39.6208 25.6645C39.6208 25.6645 29.5648 35.528 22.4316 31.6094C22.4316 31.6094 24.9882 20.2597 39.0621 22.016L39.6208 25.6645Z" fill="#FF8000"/>
<path opacity="0.05" d="M38.7824 24.0969C38.7824 24.0969 40.4422 38.1065 32.9933 41.3835C32.9933 41.3835 25.5849 32.4296 35.5579 22.3123L38.7824 24.0969Z" fill="black"/>
<path d="M39.4963 24.3306C39.4963 24.3306 41.1561 38.3401 33.7072 41.6171C33.7072 41.6171 26.2987 32.6632 36.2718 22.5459L39.4963 24.3306Z" fill="#9347B2"/>
<path opacity="0.05" d="M44.151 25.0613C44.151 25.0613 45.8108 39.0708 38.3619 42.3478C38.3619 42.3478 30.9535 33.3939 40.9265 23.2766L44.151 25.0613Z" fill="black"/>
<path d="M44.6291 25.0613C44.6291 25.0613 46.2889 39.0708 38.84 42.3478C38.84 42.3478 31.4315 33.3939 41.4046 23.2766L44.6291 25.0613Z" fill="#FF8000"/>
<path opacity="0.05" d="M42.8657 25.3438C42.8657 25.3438 54.4702 33.315 52.025 41.0953C52.025 41.0953 40.4286 40.7928 39.4023 26.6026L42.8657 25.3438Z" fill="black"/>
<path d="M43.3403 25.3438C43.3403 25.3438 54.9448 33.315 52.4996 41.0953C52.4996 41.0953 40.9032 40.7928 39.877 26.6026L43.3403 25.3438Z" fill="#9347B2"/>
<path opacity="0.05" d="M46.0335 23.488C46.0335 23.488 60.3747 26.96 61.9799 36.4174C61.9799 36.4174 51.3976 41.1989 43.5337 26.3691L46.0335 23.488Z" fill="black"/>
<path d="M46.5116 23.2524C46.5116 23.2524 60.8527 26.7244 62.4579 36.1818C62.4579 36.1818 51.8756 40.9633 44.0117 26.1335L46.5116 23.2524Z" fill="#FF8000"/>
<path d="M41.6018 20.674C41.6018 20.674 33.9667 8.82683 39.2174 2.60376C39.2174 2.60376 49.7977 7.37512 45.2899 20.8608L41.6018 20.674Z" fill="#FF8000"/>
<path d="M41.6018 20.674C41.6018 20.674 33.9667 8.82683 39.2174 2.60376C39.2174 2.60376 49.7977 7.37512 45.2899 20.8608L41.6018 20.674Z" fill="#B247A7"/>
<path d="M37.837 23.3257C37.837 23.3257 24.178 19.9594 23.7388 11.8135C23.7388 11.8135 34.6996 8.00457 40.6365 20.9258L37.837 23.3257Z" fill="#FF8000"/>
<path d="M37.837 23.3257C37.837 23.3257 24.178 19.9594 23.7388 11.8135C23.7388 11.8135 34.6996 8.00457 40.6365 20.9258L37.837 23.3257Z" fill="#B247A7"/>
<path d="M39.6208 25.6645C39.6208 25.6645 29.5648 35.528 22.4316 31.6094C22.4316 31.6094 24.9882 20.2597 39.0621 22.016L39.6208 25.6645Z" fill="#FF8000"/>
<path d="M39.6208 25.6645C39.6208 25.6645 29.5648 35.528 22.4316 31.6094C22.4316 31.6094 24.9882 20.2597 39.0621 22.016L39.6208 25.6645Z" fill="#B247A7"/>
<path d="M44.6291 25.0613C44.6291 25.0613 46.2889 39.0708 38.84 42.3478C38.84 42.3478 31.4315 33.3939 41.4046 23.2766L44.6291 25.0613Z" fill="#FF8000"/>
<path d="M44.6291 25.0613C44.6291 25.0613 46.2889 39.0708 38.84 42.3478C38.84 42.3478 31.4315 33.3939 41.4046 23.2766L44.6291 25.0613Z" fill="#B247A7"/>
<path d="M46.5116 23.2524C46.5116 23.2524 60.8527 26.7244 62.4579 36.1818C62.4579 36.1818 51.8756 40.9633 44.0117 26.1335L46.5116 23.2524Z" fill="#FF8000"/>
<path d="M46.5116 23.2524C46.5116 23.2524 60.8527 26.7244 62.4579 36.1818C62.4579 36.1818 51.8756 40.9633 44.0117 26.1335L46.5116 23.2524Z" fill="#B247A7"/>
<path opacity="0.05" d="M47.8852 21.218C47.8852 21.218 62.6272 21.7581 66.0784 30.7059C66.0784 30.7059 56.6579 37.5056 46.0088 24.5417L47.8852 21.218Z" fill="black"/>
<path opacity="0.05" d="M48.1244 20.02C48.1244 20.02 62.8664 20.5601 66.3176 29.5079C66.3176 29.5079 56.8972 36.3076 46.248 23.3437L48.1244 20.02Z" fill="black"/>
<path d="M48.1244 20.7385C48.1244 20.7385 62.8664 21.2786 66.3176 30.2264C66.3176 30.2264 56.8972 37.0261 46.248 24.0622L48.1244 20.7385Z" fill="#9347B2"/>
<path d="M51.7746 24.56C51.3583 26.2297 50.4579 27.7382 49.1871 28.8947C47.9163 30.0512 46.3322 30.8038 44.635 31.0575C42.9378 31.3111 41.2038 31.0543 39.6521 30.3196C38.1004 29.5849 36.8007 28.4052 35.9172 26.9297C35.0338 25.4542 34.6063 23.7491 34.6887 22.03C34.7712 20.3108 35.36 18.6548 36.3806 17.2711C37.4012 15.8875 38.8078 14.8385 40.4227 14.2566C42.0375 13.6748 43.7881 13.5862 45.4532 14.0021C46.5595 14.2787 47.6007 14.7713 48.5172 15.4517C49.4337 16.132 50.2076 16.9869 50.7946 17.9673C51.3817 18.9478 51.7704 20.0347 51.9385 21.1659C52.1067 22.2971 52.051 23.4504 51.7746 24.56Z" fill="#9347B2"/>
<path d="M47.18 21.214C47.352 20.0547 46.4735 19.4334 45.2712 19.0172L45.6618 17.4477L44.7085 17.2101L44.3279 18.739C44.0769 18.6761 43.8199 18.6172 43.5648 18.5583L43.9474 17.0193L42.996 16.7817L42.6054 18.3512C42.403 18.3045 42.2005 18.2578 41.9981 18.2071L40.6844 17.8781L40.4314 18.8933C40.4314 18.8933 41.1379 19.0557 41.1237 19.0659C41.2556 19.0817 41.376 19.1489 41.4589 19.253C41.5419 19.3571 41.5807 19.4897 41.567 19.6222L41.1217 21.411C41.1554 21.4196 41.1885 21.4304 41.2208 21.4435L41.1196 21.4191L40.4962 23.9246C40.4826 23.9684 40.4605 24.0092 40.4311 24.0444C40.4017 24.0797 40.3656 24.1087 40.3249 24.1299C40.2843 24.151 40.2398 24.1639 40.1942 24.1677C40.1485 24.1715 40.1026 24.1661 40.059 24.152C40.059 24.1662 39.3667 23.9794 39.3667 23.9794L38.8931 25.0737L40.1318 25.3844L40.8099 25.561L40.4193 27.1427L41.3706 27.3802L41.7613 25.8087C42.0204 25.8798 42.2734 25.9448 42.5204 26.0118L42.1317 27.5752L43.0851 27.8127L43.4798 26.229C45.0991 26.5376 46.3258 26.4138 46.8399 24.9397C47.2447 23.754 46.8197 23.0698 45.9655 22.6231C46.5849 22.4728 47.0545 22.0668 47.18 21.214ZM45.002 24.2758C44.7085 25.4615 42.7167 24.82 42.071 24.6596L42.5932 22.5561C43.2389 22.7185 45.3096 23.0373 45.002 24.2758ZM45.2975 21.1978C45.0283 22.2779 43.3705 21.7277 42.8341 21.6039L43.3078 19.6953C43.8462 19.8192 45.5768 20.0709 45.2975 21.1958V21.1978Z" fill="white"/>
<path d="M145.517 39.8847C149.109 36.8285 150.431 32.4717 148.47 30.1536C146.51 27.8354 142.009 28.4338 138.417 31.49C134.826 34.5462 133.504 38.9029 135.465 41.221C137.425 43.5392 141.926 42.9408 145.517 39.8847Z" fill="#FF8000"/>
<path d="M146.169 29.5344C146.169 29.5344 154.088 17.874 161.851 20.3084C161.851 20.3084 161.577 31.9404 147.435 33.0043L146.169 29.5344Z" fill="#B247A7"/>
<path opacity="0.05" d="M144.453 30.4053C144.453 30.4053 145.759 16.3572 153.728 14.7207C153.728 14.7207 159.098 25.0329 147.234 32.8275L144.453 30.4053Z" fill="black"/>
<path d="M146.598 32.6102L146.205 32.2691L143.817 30.188C143.817 30.188 144.39 24.0482 147.078 19.4149C148.456 17.0373 150.391 15.0557 153.092 14.5034C153.092 14.5014 158.462 24.8136 146.598 32.6102Z" fill="#9347B2"/>
<path opacity="0.05" d="M147.078 19.415C148.365 22.4606 148.77 26.7081 146.232 32.2733H146.205L143.817 30.1882C143.817 30.1882 144.39 24.0463 147.078 19.415Z" fill="black"/>
<path d="M145.803 32.4825L144.993 32.3546L142.173 31.9181C142.173 31.9181 139.429 26.4747 139.218 21.145C139.107 18.3674 139.688 15.6203 141.7 13.6895C141.69 13.6874 151.709 19.5471 145.803 32.4825Z" fill="#B247A7"/>
<path opacity="0.05" d="M145.065 32.3181L144.982 32.3547L142.163 31.9181C142.163 31.9181 139.418 26.4747 139.208 21.145C141.823 23.0678 144.294 26.4301 145.065 32.3181Z" fill="black"/>
<path d="M141.254 33.9888C141.254 33.9888 129.206 26.7079 131.196 18.7976C131.196 18.7976 142.79 18.422 144.636 32.529L141.254 33.9888Z" fill="#FF8000"/>
<path opacity="0.05" d="M139.896 35.3676C139.896 35.3676 126.198 32.1678 125.66 24.026C125.66 24.026 136.574 20.0851 142.663 32.9332L139.896 35.3676Z" fill="black"/>
<path d="M139.467 35.5766C139.467 35.5766 125.769 32.3768 125.231 24.235C125.231 24.235 136.145 20.2941 142.234 33.1422L139.467 35.5766Z" fill="#B247A7"/>
<path opacity="0.05" d="M139.034 37.4973C139.034 37.4973 125.289 40.49 121.326 33.3655C121.326 33.3655 129.506 25.1161 140.497 34.1066L139.034 37.4973Z" fill="black"/>
<path d="M139.029 38.0295C139.029 38.0295 125.285 41.0223 121.322 33.8977C121.322 33.8977 129.501 25.6483 140.493 34.6388L139.029 38.0295Z" fill="#FF8000"/>
<path opacity="0.05" d="M139.41 40.4316C139.41 40.4316 128.211 48.9591 121.62 44.1837C121.62 44.1837 125.563 33.2421 139.311 36.7384L139.41 40.4316Z" fill="black"/>
<path d="M139.406 40.9672C139.406 40.9672 128.206 49.4948 121.616 44.7194C121.616 44.7194 125.559 33.7777 139.307 37.274L139.406 40.9672Z" fill="#B247A7"/>
<path opacity="0.05" d="M141.018 39.1218C141.018 39.1218 136.301 52.4126 128.176 52.0309C128.176 52.0309 125.504 40.7096 138.919 36.0864L141.018 39.1218Z" fill="black"/>
<path d="M141.656 39.3452C141.656 39.3452 136.94 52.636 128.815 52.2543C128.815 52.2543 126.143 40.933 139.557 36.3098L141.656 39.3452Z" fill="#FF8000"/>
<path opacity="0.05" d="M140.215 38.3098C140.215 38.3098 147.84 50.1651 142.583 56.3801C142.583 56.3801 132.007 51.6006 136.537 38.1169L140.215 38.3098Z" fill="black"/>
<path d="M140.963 38.2C140.963 38.2 148.588 50.0553 143.331 56.2702C143.331 56.2702 132.755 51.4907 137.285 38.0071L140.963 38.2Z" fill="#B247A7"/>
<path opacity="0.05" d="M145.464 36.8071C145.464 36.8071 153.089 48.6624 147.832 54.8774C147.832 54.8774 137.256 50.0979 141.786 36.6143L145.464 36.8071Z" fill="black"/>
<path d="M145.891 36.5979C145.891 36.5979 153.516 48.4532 148.259 54.6682C148.259 54.6682 137.683 49.8887 142.213 36.405L145.891 36.5979Z" fill="#FF8000"/>
<path opacity="0.05" d="M144.431 37.6277C144.431 37.6277 158.347 39.6763 159.557 47.743C159.557 47.743 149.007 52.5793 141.872 40.2834L144.431 37.6277Z" fill="black"/>
<path d="M144.858 37.4182C144.858 37.4182 158.774 39.4669 159.985 47.5335C159.985 47.5335 149.435 52.3698 142.3 40.0739L144.858 37.4182Z" fill="#B247A7"/>
<path opacity="0.05" d="M146.466 34.5679C146.466 34.5679 160.87 31.3701 166.452 39.1585C166.452 39.1585 159.04 48.1165 145.482 38.2571L146.466 34.5679Z" fill="black"/>
<path d="M146.789 34.1433C146.789 34.1433 161.193 30.9455 166.775 38.734C166.775 38.734 159.363 47.6919 145.805 37.8325L146.789 34.1433Z" fill="#FF8000"/>
<path d="M141.254 33.9888C141.254 33.9888 129.206 26.7079 131.196 18.7976C131.196 18.7976 142.79 18.422 144.636 32.529L141.254 33.9888Z" fill="#FF8000"/>
<path d="M141.254 33.9888C141.254 33.9888 129.206 26.7079 131.196 18.7976C131.196 18.7976 142.79 18.422 144.636 32.529L141.254 33.9888Z" fill="#9347B2"/>
<path d="M139.029 38.0295C139.029 38.0295 125.285 41.0223 121.322 33.8977C121.322 33.8977 129.501 25.6483 140.493 34.6388L139.029 38.0295Z" fill="#FF8000"/>
<path d="M139.029 38.0295C139.029 38.0295 125.285 41.0223 121.322 33.8977C121.322 33.8977 129.501 25.6483 140.493 34.6388L139.029 38.0295Z" fill="#9347B2"/>
<path d="M141.656 39.3452C141.656 39.3452 136.94 52.636 128.815 52.2543C128.815 52.2543 126.143 40.933 139.557 36.3098L141.656 39.3452Z" fill="#FF8000"/>
<path d="M141.656 39.3452C141.656 39.3452 136.94 52.636 128.815 52.2543C128.815 52.2543 126.143 40.933 139.557 36.3098L141.656 39.3452Z" fill="#9347B2"/>
<path d="M145.891 36.5979C145.891 36.5979 153.516 48.4532 148.259 54.6682C148.259 54.6682 137.683 49.8887 142.213 36.405L145.891 36.5979Z" fill="#FF8000"/>
<path d="M145.891 36.5979C145.891 36.5979 153.516 48.4532 148.259 54.6682C148.259 54.6682 137.683 49.8887 142.213 36.405L145.891 36.5979Z" fill="#9347B2"/>
<path d="M146.789 34.1433C146.789 34.1433 161.193 30.9455 166.775 38.734C166.775 38.734 159.363 47.6919 145.805 37.8325L146.789 34.1433Z" fill="#FF8000"/>
<path d="M146.789 34.1433C146.789 34.1433 161.193 30.9455 166.775 38.734C166.775 38.734 159.363 47.6919 145.805 37.8325L146.789 34.1433Z" fill="#9347B2"/>
<path opacity="0.05" d="M147.141 31.7088C147.141 31.7088 160.622 25.699 167.64 32.2185C167.64 32.2185 162.152 42.4759 146.91 35.5219L147.141 31.7088Z" fill="black"/>
<path opacity="0.05" d="M146.823 30.5292C146.823 30.5292 160.304 24.5193 167.322 31.0388C167.322 31.0388 161.834 41.2962 146.592 34.3422L146.823 30.5292Z" fill="black"/>
<path d="M147.141 31.1749C147.141 31.1749 160.622 25.165 167.64 31.6845C167.64 31.6845 162.152 41.9419 146.91 34.9879L147.141 31.1749Z" fill="#B247A7"/>
<path d="M152.09 33.0002C152.447 34.6837 152.299 36.4356 151.663 38.0345C151.028 39.6334 149.934 41.0075 148.521 41.983C147.107 42.9586 145.437 43.4918 143.721 43.5153C142.005 43.5388 140.321 43.0515 138.881 42.115C137.441 41.1786 136.311 39.835 135.632 38.2541C134.954 36.6732 134.758 34.9259 135.069 33.2333C135.38 31.5406 136.184 29.9785 137.381 28.7444C138.577 27.5103 140.111 26.6597 141.789 26.3C142.904 26.0612 144.055 26.0452 145.176 26.2527C146.297 26.4603 147.367 26.8873 148.323 27.5096C149.28 28.1318 150.105 28.9369 150.751 29.879C151.397 30.8211 151.852 31.8817 152.09 33.0002Z" fill="#B247A7"/>
<path d="M146.499 32.0156C146.147 30.8989 145.082 30.7263 143.821 30.8827L143.485 29.301L142.526 29.5041L142.854 31.0451C142.601 31.0999 142.344 31.1588 142.089 31.2197L141.759 29.6685L140.799 29.8716L141.135 31.4532C140.933 31.5019 140.73 31.5486 140.528 31.5933L139.204 31.8755L139.423 32.9049C139.423 32.9049 140.129 32.7405 140.119 32.7547C140.244 32.7108 140.382 32.7182 140.502 32.7752C140.622 32.8321 140.715 32.9342 140.761 33.0592L141.145 34.8622C141.179 34.8552 141.214 34.8504 141.249 34.848L141.147 34.8703L141.676 37.392C141.684 37.4381 141.683 37.4855 141.673 37.5312C141.662 37.5769 141.643 37.62 141.615 37.6579C141.588 37.6959 141.553 37.7278 141.513 37.7519C141.473 37.776 141.428 37.7917 141.382 37.7981C141.396 37.7981 140.684 37.9483 140.684 37.9483L140.738 39.1402L141.987 38.8722L142.688 38.7158L143.028 40.3158L143.987 40.1127L143.651 38.529C143.916 38.4783 144.171 38.4255 144.42 38.3727L144.756 39.9483L145.716 39.7452L145.376 38.1473C146.971 37.7088 148.007 37.059 147.829 35.5078C147.681 34.2592 146.991 33.8369 146.028 33.8125C146.515 33.4085 146.758 32.8278 146.499 32.0156ZM145.892 35.7251C146.147 36.921 144.07 37.2215 143.427 37.3616L142.975 35.2419C143.617 35.1038 145.619 34.4785 145.884 35.7251H145.892ZM144.801 32.8278C145.032 33.916 143.303 34.1536 142.761 34.2693L142.356 32.3466C142.89 32.2329 144.558 31.6948 144.801 32.8278Z" fill="white"/>
<path d="M137.091 78.2358C140.73 75.2372 142.121 70.902 140.198 68.5529C138.274 66.2039 133.764 66.7304 130.125 69.729C126.485 72.7276 125.095 77.0627 127.018 79.4118C128.942 81.7609 133.452 81.2344 137.091 78.2358Z" fill="#FF8000"/>
<path d="M137.9 67.8734C137.9 67.8734 145.997 56.3389 153.725 58.8952C153.725 58.8952 153.27 70.521 139.111 71.3616L137.9 67.8734Z" fill="#B247A7"/>
<path opacity="0.05" d="M136.168 68.7182C136.168 68.7182 137.694 54.6925 145.682 53.1819C145.682 53.1819 150.89 63.5774 138.905 71.1851L136.168 68.7182Z" fill="black"/>
<path d="M138.275 70.9556L137.889 70.6084L135.533 68.4887C135.533 68.4887 136.201 62.3591 138.962 57.7684C140.379 55.4132 142.342 53.462 145.05 52.9524C145.052 52.9524 150.26 63.3479 138.275 70.9556Z" fill="#9347B2"/>
<path opacity="0.05" d="M138.964 57.7688C140.204 60.8286 140.542 65.0883 137.915 70.6129H137.889L135.533 68.4932C135.533 68.4932 136.211 62.3594 138.964 57.7688Z" fill="black"/>
<path d="M137.483 70.8158L136.674 70.6737L133.854 70.1864C133.854 70.1864 131.194 64.7044 131.069 59.3686C131.002 56.589 131.623 53.8521 133.666 51.9517C133.666 51.9578 143.592 57.9758 137.483 70.8158Z" fill="#B247A7"/>
<path opacity="0.05" d="M136.75 70.641L136.665 70.6755L133.854 70.1862C133.854 70.1862 131.194 64.7042 131.068 59.3684C133.653 61.3379 136.072 64.7407 136.75 70.641Z" fill="black"/>
<path d="M132.911 72.2512C132.911 72.2512 120.979 64.7815 123.092 56.9037C123.092 56.9037 134.691 56.7128 136.316 70.8442L132.911 72.2512Z" fill="#FF8000"/>
<path opacity="0.05" d="M131.533 73.6073C131.533 73.6073 117.886 70.1902 117.477 62.0342C117.477 62.0342 128.452 58.2659 134.34 71.2095L131.533 73.6073Z" fill="black"/>
<path d="M131.1 73.8104C131.1 73.8104 117.453 70.3933 117.044 62.2374C117.044 62.2374 128.019 58.469 133.907 71.4126L131.1 73.8104Z" fill="#B247A7"/>
<path opacity="0.05" d="M130.636 75.7213C130.636 75.7213 116.846 78.4968 112.996 71.3093C112.996 71.3093 121.295 63.1878 132.152 72.3549L130.636 75.7213Z" fill="black"/>
<path d="M130.622 76.255C130.622 76.255 116.831 79.0305 112.981 71.843C112.981 71.843 121.281 63.7215 132.138 72.8886L130.622 76.255Z" fill="#FF8000"/>
<path opacity="0.05" d="M130.97 78.6632C130.97 78.6632 119.634 87.0182 113.123 82.1331C113.123 82.1331 117.236 71.2544 130.935 74.968L130.97 78.6632Z" fill="black"/>
<path d="M130.948 79.1991C130.948 79.1991 119.613 87.5541 113.101 82.669C113.101 82.669 117.214 71.7903 130.914 75.5039L130.948 79.1991Z" fill="#B247A7"/>
<path opacity="0.05" d="M132.596 77.382C132.596 77.382 127.672 90.5977 119.555 90.084C119.555 90.084 117.061 78.7139 130.546 74.3101L132.596 77.382Z" fill="black"/>
<path d="M133.229 77.6117C133.229 77.6117 128.304 90.8273 120.187 90.3156C120.187 90.3156 117.693 78.9456 131.178 74.5417L133.229 77.6117Z" fill="#FF8000"/>
<path opacity="0.05" d="M131.805 76.5456C131.805 76.5456 139.244 88.5247 133.89 94.6605C133.89 94.6605 123.391 89.7145 128.131 76.304L131.805 76.5456Z" fill="black"/>
<path d="M132.555 76.456C132.555 76.456 139.994 88.4351 134.64 94.5709C134.64 94.5709 124.141 89.6249 128.882 76.2144L132.555 76.456Z" fill="#B247A7"/>
<path opacity="0.05" d="M137.078 75.1344C137.078 75.1344 144.517 87.1136 139.163 93.2494C139.163 93.2494 128.663 88.3034 133.404 74.8928L137.078 75.1344Z" fill="black"/>
<path d="M137.51 74.9313C137.51 74.9313 144.948 86.9105 139.594 93.0462C139.594 93.0462 129.095 88.1003 133.836 74.6897L137.51 74.9313Z" fill="#FF8000"/>
<path opacity="0.05" d="M136.031 75.9382C136.031 75.9382 149.912 78.2062 150.995 86.2931C150.995 86.2931 140.371 90.9629 133.43 78.5554L136.031 75.9382Z" fill="black"/>
<path d="M136.464 75.7351C136.464 75.7351 150.346 78.003 151.428 86.09C151.428 86.09 140.804 90.7598 133.863 78.3523L136.464 75.7351Z" fill="#B247A7"/>
<path opacity="0.05" d="M138.114 72.911C138.114 72.911 152.567 69.9406 158.028 77.8164C158.028 77.8164 150.476 86.6566 137.074 76.5839L138.114 72.911Z" fill="black"/>
<path d="M138.437 72.4908C138.437 72.4908 152.889 69.5204 158.351 77.3962C158.351 77.3962 150.798 86.2364 137.396 76.1638L138.437 72.4908Z" fill="#FF8000"/>
<path d="M132.911 72.2512C132.911 72.2512 120.979 64.7815 123.092 56.9037C123.092 56.9037 134.691 56.7128 136.316 70.8442L132.911 72.2512Z" fill="#FF8000"/>
<path d="M132.911 72.2512C132.911 72.2512 120.979 64.7815 123.092 56.9037C123.092 56.9037 134.691 56.7128 136.316 70.8442L132.911 72.2512Z" fill="#9347B2"/>
<path d="M130.622 76.255C130.622 76.255 116.831 79.0305 112.981 71.843C112.981 71.843 121.281 63.7215 132.138 72.8886L130.622 76.255Z" fill="#FF8000"/>
<path d="M130.622 76.255C130.622 76.255 116.831 79.0305 112.981 71.843C112.981 71.843 121.281 63.7215 132.138 72.8886L130.622 76.255Z" fill="#9347B2"/>
<path d="M133.229 77.6117C133.229 77.6117 128.304 90.8273 120.187 90.3156C120.187 90.3156 117.693 78.9456 131.178 74.5417L133.229 77.6117Z" fill="#FF8000"/>
<path d="M133.229 77.6117C133.229 77.6117 128.304 90.8273 120.187 90.3156C120.187 90.3156 117.693 78.9456 131.178 74.5417L133.229 77.6117Z" fill="#9347B2"/>
<path d="M137.51 74.9313C137.51 74.9313 144.948 86.9105 139.594 93.0462C139.594 93.0462 129.095 88.1003 133.836 74.6897L137.51 74.9313Z" fill="#FF8000"/>
<path d="M137.51 74.9313C137.51 74.9313 144.948 86.9105 139.594 93.0462C139.594 93.0462 129.095 88.1003 133.836 74.6897L137.51 74.9313Z" fill="#9347B2"/>
<path d="M138.437 72.4908C138.437 72.4908 152.889 69.5204 158.351 77.3962C158.351 77.3962 150.798 86.2364 137.396 76.1638L138.437 72.4908Z" fill="#FF8000"/>
<path d="M138.437 72.4908C138.437 72.4908 152.889 69.5204 158.351 77.3962C158.351 77.3962 150.798 86.2364 137.396 76.1638L138.437 72.4908Z" fill="#9347B2"/>
<path opacity="0.05" d="M138.828 70.0646C138.828 70.0646 152.404 64.2679 159.315 70.897C159.315 70.897 153.667 81.0671 138.537 73.8715L138.828 70.0646Z" fill="black"/>
<path opacity="0.05" d="M138.538 68.8787C138.538 68.8787 152.112 63.08 159.024 69.7111C159.024 69.7111 153.377 79.8812 138.246 72.6856L138.538 68.8787Z" fill="black"/>
<path d="M138.843 69.5285C138.843 69.5285 152.417 63.7338 159.332 70.363C159.332 70.363 153.684 80.533 138.554 73.3374L138.843 69.5285Z" fill="#B247A7"/>
<path d="M143.763 71.433C144.094 73.122 143.919 74.8716 143.259 76.4606C142.6 78.0497 141.485 79.4068 140.056 80.3604C138.627 81.3141 136.949 81.8214 135.233 81.8182C133.517 81.815 131.84 81.3015 130.415 80.3426C128.99 79.3837 127.88 78.0225 127.226 76.431C126.572 74.8395 126.403 73.0893 126.741 71.4015C127.079 69.7138 127.907 68.1644 129.123 66.9492C130.338 65.734 131.886 64.9076 133.569 64.5744C135.828 64.1281 138.171 64.5999 140.082 65.8861C141.994 67.1723 143.318 69.1676 143.763 71.433Z" fill="#B247A7"/>
<path d="M138.189 70.3607C137.856 69.2379 136.795 69.0491 135.53 69.1852L135.218 67.5974L134.255 67.7883L134.558 69.3334C134.305 69.3841 134.048 69.439 133.791 69.4958L133.485 67.9405L132.522 68.1314L132.834 69.7191C132.631 69.7638 132.429 69.8085 132.226 69.8491L130.898 70.111L131.101 71.1424C131.101 71.1424 131.809 70.9881 131.799 71.0044C131.925 70.9623 132.063 70.9717 132.182 71.0306C132.302 71.0895 132.393 71.1931 132.437 71.3191L132.793 73.1281C132.827 73.1211 132.862 73.1164 132.896 73.1139L132.795 73.1342L133.287 75.6681C133.293 75.7136 133.29 75.7599 133.279 75.8043C133.267 75.8487 133.247 75.8903 133.219 75.9268C133.191 75.9632 133.156 75.9938 133.116 76.0166C133.077 76.0395 133.033 76.0542 132.987 76.06C133.002 76.06 132.287 76.198 132.287 76.198L132.321 77.3899L133.574 77.1422L134.263 77.0122L134.578 78.6182L135.54 78.4274L135.228 76.8396C135.493 76.7929 135.75 76.7442 135.999 76.6955L136.309 78.2771L137.273 78.0863L136.961 76.4803C138.562 76.0742 139.615 75.4346 139.457 73.8814C139.329 72.6307 138.647 72.1962 137.683 72.1576C138.185 71.7536 138.438 71.181 138.189 70.3607ZM137.517 74.0601C137.754 75.26 135.68 75.528 135.026 75.658L134.609 73.5301C135.261 73.4002 137.271 72.8073 137.515 74.0601H137.517ZM136.479 71.1485C136.694 72.2409 134.961 72.45 134.416 72.5576L134.038 70.6287C134.58 70.5191 136.254 70.0095 136.479 71.1465V71.1485Z" fill="white"/>
<path opacity="0.3" d="M184.327 25.7842C189.887 25.7842 194.395 21.2628 194.395 15.6852C194.395 10.1077 189.887 5.58618 184.327 5.58618C178.766 5.58618 174.259 10.1077 174.259 15.6852C174.259 21.2628 178.766 25.7842 184.327 25.7842Z" fill="#A04DAF"/>
<path d="M20.0722 97.2226L21.0175 99.923L20.2908 104.457C20.2908 104.457 19.1937 108.073 19.303 109.827C19.4123 111.581 19.303 113.991 19.303 113.991C19.303 113.991 16.6716 118.814 18.8638 120.787C19.3739 121.246 19.801 121.152 20.1552 120.742C20.5124 120.941 20.8799 121.12 21.2563 121.278L19.4164 128.458L17.6594 131.964C17.6594 131.964 13.9269 135.142 12.4998 141.828C12.4998 141.828 11.0829 146.282 10.17 147.61C10.1285 147.672 10.0832 147.732 10.0344 147.789C9.89245 147.562 9.76272 147.327 9.64576 147.086L7.99809 151.47C7.99809 151.47 11.2914 153.334 13.5969 154.109C15.9024 154.885 18.5379 154 19.3051 153.013C20.0722 152.026 17.7687 150.93 16.121 150.274C15.3215 149.955 14.8863 149.198 14.6475 148.501C14.6252 148.286 14.609 148.047 14.6009 147.785C14.5665 146.54 14.7568 144.861 15.7911 143.588C17.6574 141.286 20.5115 135.588 20.5115 135.588C20.5115 135.588 23.3675 132.518 24.0254 131.3L27.9786 124.681C30.1707 127.181 32.371 133.061 32.371 133.061L33.2495 138.431C33.2495 138.431 36.1036 146.102 36.982 146.869C37.0063 146.891 37.0306 146.914 37.0549 146.94L37.0772 146.965L37.1298 147.025L37.1521 147.052L37.2209 147.143L37.2371 147.168L37.2897 147.247L37.314 147.287L37.3606 147.367L37.3828 147.403L37.4456 147.519L37.4678 147.561L37.5104 147.649L37.5346 147.7L37.5792 147.795L37.5974 147.836L37.6541 147.97L37.6763 148.022L37.7148 148.12L37.7371 148.175L37.7856 148.3L37.7978 148.333L37.8484 148.473L37.8666 148.526L37.9051 148.635L37.9213 148.682L37.9719 148.836V148.857L38.0144 148.993L38.0285 149.04L38.067 149.163V149.196L38.1115 149.35V149.381L38.1459 149.502L38.1581 149.547L38.1905 149.663V149.695L38.2249 149.827L38.2411 149.89L38.2573 149.953L38.2775 150.03V150.051C38.3038 150.152 38.3261 150.254 38.3463 150.335L38.3726 150.445L38.3848 150.495V150.51C38.2242 150.403 38.0713 150.285 37.9273 150.156C37.9912 150.886 37.9912 151.619 37.9273 152.349C37.818 153.445 38.9151 154.988 38.9151 154.988C38.9151 154.988 48.795 152.576 49.3436 150.928C49.8921 149.279 47.5866 149.507 46.9288 149.722C46.2709 149.937 42.9776 149.283 42.5384 148.516C42.4553 148.374 42.3562 148.243 42.2428 148.124C42.1483 148.021 42.0219 147.952 41.8839 147.929C41.746 147.906 41.6044 147.931 41.4818 147.998L41.4575 147.97L41.4291 147.935L41.4089 147.911L41.3745 147.864C41.3502 147.831 41.3259 147.795 41.3016 147.758L41.2753 147.718C41.2308 147.649 41.1862 147.574 41.1417 147.492V147.476C40.4413 146.193 39.6883 143.576 39.5224 142.955V142.94L39.5082 142.89V142.871V142.857V142.831V142.818L36.9841 134.6C37.7533 131.641 36.9841 130.216 36.9841 130.216L35.557 123.53L34.7474 120.503C34.7717 120.476 34.7838 120.462 34.7838 120.462C34.128 118.621 33.6118 114.714 33.292 111.695C33.2718 111.499 33.2515 111.307 33.2313 111.12L35.6603 112.243C35.6603 112.243 38.9536 117.285 41.0405 114.883C43.1274 112.481 36.8687 110.39 36.8687 110.39L32.9256 107.748V107.632L32.4864 104.345C32.4864 104.345 31.2719 100.4 31.8285 97.7688C32.2961 95.5354 30.7719 94.7232 30.3104 94.5202C30.2381 94.492 30.1636 94.4696 30.0878 94.4532C29.4805 94.3111 28.8146 93.6959 28.2437 93.032C27.7514 92.4662 27.1743 91.9805 26.5333 91.5924C26.9043 91.3458 27.1627 90.9618 27.2519 90.5244C27.343 90.0189 27.1709 89.5093 27.0151 89.02C27.2387 88.4707 27.4984 87.9369 27.7924 87.4221H27.8106L27.9442 87.2007C29.1022 87.066 30.1707 86.5098 30.9471 85.6374C31.7235 84.7651 32.1538 83.6373 32.1564 82.468C32.1539 81.6683 31.9491 80.8824 31.5613 80.1838C32.0532 80.0133 32.5248 79.796 32.3467 79.2904C32.2273 78.9473 31.9055 78.724 31.6565 78.4621C30.9946 77.7636 30.7942 76.7159 30.1019 76.05C29.9021 75.8595 29.6705 75.7056 29.4178 75.5952C28.7154 75.1891 27.8146 75.1444 27.0029 75.2947C25.9909 75.4795 25.0597 75.9241 24.078 76.2084C23.2137 76.4601 22.3109 76.588 21.4851 76.9413C20.0682 77.5504 18.9873 78.7686 18.3355 80.1554C17.7606 81.3736 17.4914 82.74 16.8619 83.938C16.2324 85.1359 15.0766 86.2181 13.7204 86.1714C13.3702 86.1592 13.0059 86.0739 12.678 86.1977C12.42 86.31 12.2064 86.505 12.0707 86.752C11.3258 87.9703 11.8055 89.6047 11.2125 90.9021C10.7732 91.8665 9.82389 92.4756 9.04661 93.1984C8.26933 93.9213 7.59934 94.9994 7.96773 95.9922C8.0718 96.2426 8.22483 96.4695 8.41778 96.6595C8.61073 96.8496 8.83969 96.9989 9.09114 97.0988C9.34527 97.2376 9.61896 97.3368 9.90283 97.3932C10.6396 97.5434 11.4027 97.4521 12.1517 97.3932C14.1758 97.249 16.4024 97.3262 18.0217 96.0856C18.6857 95.574 19.1978 94.8674 19.7281 94.2035C19.7338 95.2194 19.8492 96.2316 20.0722 97.2226ZM22.9951 104.114C23.1591 104.388 23.3271 104.658 23.5011 104.926C25.1205 107.411 22.9263 110.814 22.9263 110.814C22.4276 111.224 21.999 111.713 21.6571 112.262C21.6855 111.216 21.8069 110.028 22.1591 109.169C22.7056 107.843 22.9182 105.409 22.9971 104.114H22.9951Z" fill="url(#paint2_linear_32_3043)"/>
<path d="M21.3465 99.3523L20.4883 104.702C20.4883 104.702 19.4155 108.235 19.5227 109.947C19.63 111.658 19.5227 114.007 19.5227 114.007C19.5227 114.007 16.95 118.718 19.0936 120.645C21.2372 122.572 21.8809 114.543 21.8809 114.543C21.8809 114.543 21.559 111.118 22.31 109.299C23.061 107.48 23.1683 103.519 23.1683 103.519L21.3465 99.3523Z" fill="#FFCDD3"/>
<path d="M21.3465 99.3523L20.4883 104.702C20.4883 104.702 19.4155 108.235 19.5227 109.947C19.63 111.658 19.5227 114.007 19.5227 114.007C19.5227 114.007 16.95 118.718 19.0936 120.645C21.2372 122.572 21.8809 114.543 21.8809 114.543C21.8809 114.543 21.559 111.118 22.31 109.299C23.061 107.48 23.1683 103.519 23.1683 103.519L21.3465 99.3523Z" fill="#F89D8F"/>
<path d="M33.9099 117.756L35.3936 123.329L36.7883 129.859C36.7883 129.859 37.5392 131.249 36.7883 134.141L39.2537 142.169C39.2537 142.169 40.6484 147.308 41.5046 147.413C42.3608 147.519 40.6463 151.474 40.6463 151.474L38.2882 150.083C38.2882 150.083 37.6344 146.879 36.7863 146.122C35.9381 145.365 33.1428 137.879 33.1428 137.879L32.2845 132.634C32.2845 132.634 29.6045 125.463 27.2444 123.749C24.8842 122.036 24.1353 119.254 24.1353 119.254L33.9099 117.756Z" fill="#FFCDD3"/>
<path d="M24.1348 119.26C24.1348 119.26 24.8857 122.044 27.2439 123.756C29.602 125.467 32.284 132.64 32.284 132.64L33.1423 137.885C33.1423 137.885 35.9295 145.377 36.7858 146.128C37.4153 146.678 37.9294 148.565 38.1581 149.515C38.2411 149.862 38.2877 150.089 38.2877 150.089L40.6458 151.48C40.6458 151.48 42.3623 147.519 41.5041 147.419C41.3705 147.403 41.2247 147.265 41.0729 147.044C40.2471 145.842 39.2512 142.171 39.2512 142.171L36.7878 134.141C37.5388 131.252 36.7878 129.859 36.7878 129.859L35.3931 123.329L33.9094 117.756L24.1348 119.26Z" fill="#F89D8F"/>
<path d="M10.4106 147.093L11.2689 149.123L15.129 148.694C15.0083 148.142 14.9405 147.579 14.9265 147.013C14.8921 145.795 15.0784 144.159 16.0884 142.914C17.9102 140.666 20.6995 135.099 20.6995 135.099C20.6995 135.099 23.4867 132.102 24.1405 130.925L29.5086 121.936L29.3406 121.124L30.7879 119.786H21.7804L19.6368 128.135L17.9203 131.56C17.9203 131.56 14.2768 134.665 12.8801 141.194C12.8801 141.194 11.4895 145.545 10.6029 146.843C10.5474 146.932 10.483 147.016 10.4106 147.093Z" fill="#F89D8F"/>
<path opacity="0.1" d="M38.1597 149.515C38.2427 149.862 38.2892 150.089 38.2892 150.089L40.6474 151.48C40.6474 151.48 42.3638 147.519 41.5056 147.419C41.372 147.403 41.2263 147.265 41.0745 147.044C40.9639 147.111 40.8775 147.212 40.828 147.331C40.7785 147.451 40.7684 147.584 40.7992 147.71C40.833 147.87 40.8903 148.023 40.9692 148.166C41.291 148.703 39.8964 149.557 39.8964 149.557C39.4268 150.158 38.6657 149.84 38.1597 149.515Z" fill="black"/>
<path d="M40.9054 147.921C40.8751 147.787 40.8895 147.647 40.9462 147.523C41.003 147.398 41.099 147.295 41.2195 147.231C41.34 147.166 41.4784 147.143 41.6133 147.165C41.7482 147.187 41.8721 147.253 41.9661 147.352C42.0764 147.469 42.1728 147.597 42.2535 147.736C42.6826 148.485 45.897 149.127 46.5427 148.914C47.1884 148.701 49.4372 148.485 48.9008 150.091C48.3644 151.697 38.7153 154.053 38.7153 154.053C38.7153 154.053 37.6424 152.554 37.7497 151.484C37.8121 150.772 37.8121 150.056 37.7497 149.344C37.7497 149.344 39.2537 150.733 40.0026 149.777C40.0026 149.777 41.3973 148.92 41.0754 148.386C40.9958 148.24 40.9385 148.084 40.9054 147.921Z" fill="#B247A7"/>
<path opacity="0.1" d="M10.4106 147.092L11.2689 149.123L15.129 148.694C15.0083 148.141 14.9405 147.579 14.9265 147.013C14.8884 146.936 14.8323 146.87 14.763 146.82C14.6938 146.77 14.6134 146.737 14.5288 146.725C14.4442 146.713 14.3579 146.721 14.2774 146.75C14.1968 146.778 14.1244 146.826 14.0663 146.889C13.8639 147.102 13.6614 147.33 13.5157 147.515C13.0866 148.051 11.694 147.728 11.694 147.728C11.3316 147.847 10.9045 147.322 10.5969 146.847C10.543 146.934 10.4807 147.017 10.4106 147.092Z" fill="black"/>
<path d="M13.9516 147.109C14.0158 147.039 14.0971 146.989 14.1874 146.962C14.2776 146.935 14.3734 146.932 14.4649 146.955C14.5563 146.977 14.6401 147.024 14.7075 147.09C14.775 147.156 14.8236 147.239 14.8483 147.33C15.0508 148.091 15.4718 149.074 16.4029 149.448C18.0121 150.089 20.263 151.161 19.512 152.124C18.761 153.086 16.1883 153.951 13.9354 153.194C11.6826 152.436 8.47021 150.625 8.47021 150.625L10.0794 146.343C10.0794 146.343 10.9377 148.171 11.5813 147.949C11.5813 147.949 12.976 148.27 13.4031 147.736C13.561 147.543 13.7614 147.324 13.9516 147.109Z" fill="#B247A7"/>
<path d="M20.0583 120.44C24.3475 123.008 29.495 121.938 29.495 121.938L29.3877 121.189L29.6103 121.212C33.7093 121.573 34.6404 120.334 34.6404 120.334C33.9987 118.535 33.4967 114.72 33.183 111.77C33.1385 111.346 33.098 110.94 33.0595 110.552C32.9745 109.693 32.9117 108.968 32.8713 108.479C32.8369 108.049 32.8186 107.801 32.8186 107.801L32.3895 104.589C32.3895 104.589 31.2094 100.731 31.7458 98.1669C32.2033 95.9781 30.7155 95.1883 30.2641 95.0015C30.1931 94.9741 30.12 94.9524 30.0455 94.9366C29.4565 94.7965 28.8027 94.1975 28.2461 93.5539C27.4338 92.6252 26.3984 91.92 25.2382 91.5052C24.6997 91.3022 24.2402 91.0992 24.2402 91.0992C23.4893 90.2424 21.453 90.7784 21.453 90.7784C18.9876 92.3844 20.2729 97.6288 20.2729 97.6288L21.2971 100.553C21.8865 102.173 22.6666 103.718 23.6209 105.153C25.1977 107.59 23.0581 110.901 23.0581 110.901C19.7365 113.587 20.0583 120.44 20.0583 120.44Z" fill="#9347B2"/>
<path opacity="0.05" d="M29.228 115.463L29.6126 121.211C33.7115 121.573 34.6427 120.334 34.6427 120.334C34.001 118.535 33.499 114.72 33.1853 111.77C33.1407 111.346 33.1002 110.94 33.0618 110.552L29.228 115.463Z" fill="black"/>
<path opacity="0.1" d="M22.4186 100.422C22.4186 100.422 24.3496 104.063 24.9913 105.667C25.633 107.271 25.635 106.737 25.9568 107.273C26.2787 107.809 29.7096 110.162 29.7096 110.162L33.1811 111.768C33.0333 110.385 32.928 109.192 32.8693 108.487L29.5983 106.311C29.5983 106.311 27.3474 104.92 27.2401 103.098C27.1329 101.277 25.7382 97.9596 25.7382 97.9596C25.7382 97.9596 22.9509 94.9628 21.7709 96.3536C20.5908 97.7444 22.4186 100.422 22.4186 100.422Z" fill="black"/>
<path d="M25.7419 97.4255C25.7419 97.4255 27.1366 100.743 27.2439 102.564C27.3512 104.386 29.602 105.776 29.602 105.776L36.6866 110.487C36.6866 110.487 42.7975 112.517 40.7612 114.877C38.7249 117.236 35.4984 112.308 35.4984 112.308L29.7073 109.632C29.7073 109.632 26.2662 107.277 25.9545 106.743C25.6428 106.209 25.6326 106.743 24.989 105.137C24.3453 103.531 22.4163 99.8924 22.4163 99.8924C22.4163 99.8924 20.5945 97.2164 21.7726 95.8317C22.9506 94.447 25.7419 97.4255 25.7419 97.4255Z" fill="#F89D8F"/>
<path opacity="0.1" d="M26.6012 98.8144C26.6012 98.8144 24.4576 97.2084 24.0285 96.6744C23.8382 96.4389 23.5447 96.4713 23.2755 96.585C22.7732 96.7996 22.2267 96.8895 21.6825 96.847C21.2129 96.8064 20.7574 96.8327 20.8121 97.1008C20.9194 97.6368 20.4902 94.3171 20.4902 94.3171L22.312 93.6755L24.6802 94.9567L26.6012 98.8144Z" fill="black"/>
<path d="M26.6012 98.6113C26.6012 98.6113 24.4576 97.0052 24.0285 96.4713C23.8382 96.2357 23.5447 96.2682 23.2755 96.3819C22.7732 96.5965 22.2267 96.6864 21.6825 96.6438C21.2129 96.6032 20.7574 96.6296 20.8121 96.8976C20.9194 97.4336 20.4902 94.114 20.4902 94.114L22.312 93.4724L24.6802 94.7536L26.6012 98.6113Z" fill="#9347B2"/>
<path opacity="0.1" d="M31.6502 98.8144C31.2622 98.985 30.8389 99.0595 30.4162 99.0316C29.9934 99.0037 29.5836 98.8742 29.2212 98.6541" fill="black"/>
<path opacity="0.1" d="M24.6173 84.5267C24.6982 83.8872 23.9048 85.215 23.8076 84.474L28.4187 87.15C28.4187 87.15 28.1555 87.5114 27.8114 88.0839C27.6367 88.1039 27.461 88.1141 27.2851 88.1144C25.9107 88.1124 25.4715 85.4851 24.6173 84.5267Z" fill="black"/>
<path d="M27.4044 87.8972C29.9801 87.8972 32.0681 85.8128 32.0681 83.2416C32.0681 80.6703 29.9801 78.5859 27.4044 78.5859C24.8287 78.5859 22.7407 80.6703 22.7407 83.2416C22.7407 85.8128 24.8287 87.8972 27.4044 87.8972Z" fill="#F89D8F"/>
<path opacity="0.1" d="M29.498 83.3226C29.4957 83.6175 29.4388 83.9095 29.33 84.1835C29.1276 84.5469 28.7227 84.7114 28.3624 84.9286C26.9455 85.8057 26.5144 87.7711 26.9698 89.3853C27.1297 89.9538 27.3746 90.5324 27.2795 91.1131C27.0993 92.1121 25.9577 92.6318 24.9436 92.7191C23.9295 92.8064 22.8689 92.644 21.9195 93.0135C20.3265 93.6328 19.6261 95.4987 18.276 96.5403C16.7012 97.7585 14.5334 97.6773 12.5497 97.8174C11.8169 97.8702 11.072 97.9575 10.3514 97.8174C9.63084 97.6773 8.92036 97.2367 8.66532 96.5484C8.30704 95.5779 8.96085 94.518 9.71991 93.8196C10.479 93.1212 11.406 92.5202 11.8352 91.5862C12.4141 90.3192 11.9465 88.7193 12.6732 87.5255C12.8051 87.2843 13.013 87.0937 13.2642 86.9834C13.584 86.8636 13.9403 86.9468 14.2763 86.959C15.6001 87.0037 16.7296 85.9438 17.3449 84.7784C17.9603 83.6129 18.2214 82.281 18.7841 81.0831C19.4197 79.7268 20.4803 78.5309 21.8608 77.9442C22.6705 77.599 23.551 77.4731 24.393 77.2274C25.3525 76.9493 26.2674 76.5148 27.2491 76.3341C28.2309 76.1534 29.3441 76.2732 30.0607 76.9655C30.7368 77.6173 30.9331 78.6406 31.5788 79.3228C31.8237 79.5806 32.1355 79.7979 32.2549 80.1349C32.5342 80.9268 31.1821 80.9938 30.7327 81.3125C30.4003 81.5445 30.1191 81.8427 29.9066 82.1886C29.6942 82.5344 29.5551 82.9204 29.498 83.3226Z" fill="black"/>
<path d="M29.2822 83.2154C29.2799 83.5104 29.2229 83.8023 29.1142 84.0763C28.9117 84.4397 28.5069 84.6042 28.1466 84.8214C26.7297 85.6986 26.2985 87.664 26.754 89.2781C26.9139 89.8466 27.1588 90.4253 27.0637 91.0059C26.8835 92.0049 25.7419 92.5247 24.7278 92.612C23.7137 92.6993 22.653 92.5368 21.7037 92.9064C20.1107 93.5256 19.4103 95.3915 18.0602 96.4331C16.4854 97.6513 14.3175 97.5701 12.3339 97.7102C11.6011 97.763 10.8562 97.8503 10.1356 97.7102C9.41502 97.5701 8.70454 97.1295 8.4495 96.4412C8.09122 95.4707 8.74502 94.4109 9.50409 93.7124C10.2631 93.014 11.1902 92.413 11.6193 91.479C12.1982 90.2121 11.7307 88.6121 12.4573 87.4183C12.5893 87.1771 12.7971 86.9865 13.0484 86.8762C13.3682 86.7564 13.7245 86.8396 14.0605 86.8518C15.3843 86.8965 16.5138 85.8366 17.1291 84.6712C17.7444 83.5058 18.0056 82.1739 18.5683 80.9759C19.2039 79.6197 20.2645 78.4238 21.645 77.837C22.4547 77.4918 23.3352 77.3659 24.1772 77.1203C25.1367 76.8421 26.0516 76.4076 27.0333 76.2269C28.015 76.0462 29.1283 76.166 29.8449 76.8584C30.5209 77.5101 30.7173 78.5334 31.363 79.2156C31.6079 79.4735 31.9196 79.6907 32.0391 80.0278C32.3184 80.8196 30.9663 80.8866 30.5169 81.2054C30.1844 81.4373 29.9032 81.7356 29.6908 82.0814C29.4783 82.4272 29.3392 82.8133 29.2822 83.2154Z" fill="#141720"/>
<path d="M43.1892 66.9378C43.8855 69.4696 46.3004 71.0086 46.3004 71.0086C46.3004 71.0086 47.5898 68.4443 46.8935 65.9124C46.1971 63.3806 43.7823 61.8416 43.7823 61.8416C43.7823 61.8416 42.4929 64.414 43.1892 66.9378Z" fill="#B247A7"/>
<path d="M56.207 81.0427C55.458 83.5583 56.6928 86.1491 56.6928 86.1491C56.6928 86.1491 59.14 84.6608 59.8889 82.1452C60.6379 79.6296 59.4031 77.0388 59.4031 77.0388C59.4031 77.0388 56.9559 78.5271 56.207 81.0427Z" fill="#B247A7"/>
<path d="M150.099 97.2269C148.261 99.0969 148.142 101.966 148.142 101.966C148.142 101.966 151 101.803 152.838 99.9354C154.676 98.0675 154.795 95.1965 154.795 95.1965C154.795 95.1965 151.937 95.363 150.099 97.2269Z" fill="#B247A7"/>
</g>
<defs>
<linearGradient id="paint0_linear_32_3043" x1="108.817" y1="-0.505024" x2="113.7" y2="230.876" gradientUnits="userSpaceOnUse">
<stop stop-color="#FD749B"/>
<stop offset="1" stop-color="#281AC8"/>
</linearGradient>
<linearGradient id="paint1_linear_32_3043" x1="93.3948" y1="150.01" x2="93.3948" y2="0.418945" gradientUnits="userSpaceOnUse">
<stop stop-color="#808080" stop-opacity="0.25"/>
<stop offset="0.54" stop-color="#808080" stop-opacity="0.12"/>
<stop offset="1" stop-color="#808080" stop-opacity="0.1"/>
</linearGradient>
<linearGradient id="paint2_linear_32_3043" x1="-56306.8" y1="66336.2" x2="-56306.8" y2="34996.6" gradientUnits="userSpaceOnUse">
<stop stop-color="#808080" stop-opacity="0.25"/>
<stop offset="0.54" stop-color="#808080" stop-opacity="0.12"/>
<stop offset="1" stop-color="#808080" stop-opacity="0.1"/>
</linearGradient>
<clipPath id="clip0_32_3043">
<rect width="197.012" height="154.562" fill="white" transform="translate(0.460938 0.418945)"/>
</clipPath>
</defs>
</svg>
