<svg width="12" height="12" viewBox="0 0 12 12" fill="none" xmlns="http://www.w3.org/2000/svg">
<path d="M5.74636 10.9408L3.54636 11.8408C3.04636 12.0408 2.44636 11.8408 2.24636 11.3408C2.14636 11.1408 2.14636 11.0408 2.14636 10.8408L2.34636 8.44082C2.34636 8.14082 2.24636 7.94082 2.14636 7.74082L0.546363 5.94082C0.246363 5.54082 0.246363 4.84082 0.646363 4.54082C0.846363 4.44082 0.946363 4.34082 1.14636 4.34082L3.44636 3.84082C3.74636 3.74082 3.94636 3.64082 4.04636 3.34082L5.24636 1.34082C5.54636 0.84082 6.14636 0.74082 6.64636 1.04082C6.74636 1.14082 6.94636 1.24082 6.94636 1.34082L8.14636 3.34082C8.24636 3.54082 8.54636 3.74082 8.74636 3.84082L11.1464 4.34082C11.6464 4.44082 12.0464 5.04082 11.8464 5.54082C11.8464 5.74082 11.7464 5.84082 11.6464 5.94082L10.1464 7.74082C9.94636 7.94082 9.84636 8.24082 9.94636 8.44082L10.1464 10.8408C10.1464 11.4408 9.74636 11.8408 9.24636 11.9408C9.04636 11.9408 8.94636 11.9408 8.74636 11.8408L6.54636 10.9408C6.24636 10.8408 6.04636 10.8408 5.74636 10.9408Z" fill="url(#paint0_linear_32_2813)"/>
<defs>
<linearGradient id="paint0_linear_32_2813" x1="6.69406" y1="-0.870233" x2="7.29172" y2="18.7395" gradientUnits="userSpaceOnUse">
<stop stop-color="#FD749B"/>
<stop offset="1" stop-color="#281AC8"/>
</linearGradient>
</defs>
</svg>
